<svg width="22" height="24" viewBox="0 0 22 24" fill="none" xmlns="http://www.w3.org/2000/svg">
<path d="M22 10.125V10.875C22 11.4963 21.5896 12 21.0833 12H20.7778L19.7804 20.5682C19.6514 21.6767 18.8779 22.5 17.9655 22.5H4.03448C3.12213 22.5 2.34861 21.6767 2.21956 20.5682L1.22222 12H0.916667C0.410399 12 0 11.4963 0 10.875V10.125C0 9.50368 0.410399 9.00001 0.916667 9.00001H3.48872L7.56712 2.11778C7.96415 1.44784 8.7285 1.29967 9.27445 1.78693C9.82036 2.2742 9.94106 3.21231 9.54403 3.88229L6.51127 9.00001H15.4887L12.456 3.88225C12.0589 3.21231 12.1797 2.27415 12.7256 1.78689C13.2714 1.29962 14.0359 1.44775 14.4329 2.11773L18.5113 9.00001H21.0833C21.5896 9.00001 22 9.50368 22 10.125ZM11.9167 18.375V13.125C11.9167 12.5037 11.5063 12 11 12C10.4937 12 10.0833 12.5037 10.0833 13.125V18.375C10.0833 18.9963 10.4937 19.5 11 19.5C11.5063 19.5 11.9167 18.9963 11.9167 18.375ZM16.1944 18.375V13.125C16.1944 12.5037 15.784 12 15.2778 12C14.7715 12 14.3611 12.5037 14.3611 13.125V18.375C14.3611 18.9963 14.7715 19.5 15.2778 19.5C15.784 19.5 16.1944 18.9963 16.1944 18.375ZM7.63889 18.375V13.125C7.63889 12.5037 7.22849 12 6.72222 12C6.21595 12 5.80556 12.5037 5.80556 13.125V18.375C5.80556 18.9963 6.21595 19.5 6.72222 19.5C7.22849 19.5 7.63889 18.9963 7.63889 18.375Z" fill="black"/>
</svg>
