<svg width="138" height="27" viewBox="0 0 138 27" fill="none" xmlns="http://www.w3.org/2000/svg">
<path d="M52.6941 6.39511H56.6824L52.0536 20.9958H48.4729L45.7946 12.1478L43.1163 20.9958H39.5356L34.9069 6.39511H38.8952L41.3696 15.3599L44.0188 6.39511H47.5704L50.2196 15.3892L52.6941 6.39511Z" fill="white"/>
<path d="M59.5644 15.2431C60.069 17.0731 61.4373 17.9881 63.6692 17.9881C65.1053 17.9881 66.1922 17.5014 66.9297 16.528L69.9573 18.2801C68.5211 20.3631 66.4056 21.4046 63.6109 21.4046C61.2044 21.4046 59.2733 20.6746 57.8177 19.2145C56.3621 17.7545 55.6343 15.9148 55.6343 13.6955C55.6343 11.4956 56.3524 9.66567 57.7886 8.2056C59.2248 6.72606 61.0685 5.98629 63.3198 5.98629C65.4547 5.98629 67.2111 6.72606 68.589 8.2056C69.9864 9.68514 70.6851 11.5151 70.6851 13.6955C70.6851 14.1822 70.6365 14.698 70.5395 15.2431H59.5644ZM59.5062 12.323H66.9297C66.7162 11.3302 66.2698 10.5904 65.5905 10.1037C64.9307 9.617 64.1738 9.37366 63.3198 9.37366C62.3106 9.37366 61.4761 9.63647 60.8162 10.1621C60.1564 10.6683 59.7197 11.3886 59.5062 12.323Z" fill="white"/>
<path d="M80.0315 5.98629C81.9917 5.98629 83.6607 6.7358 85.0387 8.2348C86.4361 9.71434 87.1347 11.5346 87.1347 13.6955C87.1347 15.8564 86.4361 17.6863 85.0387 19.1853C83.6607 20.6649 81.9917 21.4046 80.0315 21.4046C77.9937 21.4046 76.4216 20.6941 75.3154 19.2729V20.9958H71.56V0.554827H75.3154V8.118C76.4216 6.69686 77.9937 5.98629 80.0315 5.98629ZM76.4508 16.674C77.2077 17.4332 78.1683 17.8129 79.3328 17.8129C80.4973 17.8129 81.458 17.4332 82.2149 16.674C82.9912 15.8953 83.3793 14.9025 83.3793 13.6955C83.3793 12.4885 82.9912 11.5054 82.2149 10.7461C81.458 9.96742 80.4973 9.57807 79.3328 9.57807C78.1683 9.57807 77.2077 9.96742 76.4508 10.7461C75.6939 11.5054 75.3154 12.4885 75.3154 13.6955C75.3154 14.9025 75.6939 15.8953 76.4508 16.674Z" fill="white"/>
<path d="M94.9651 21.4046C92.772 21.4046 90.938 20.6649 89.463 19.1853C88.0074 17.7058 87.2796 15.8758 87.2796 13.6955C87.2796 11.5151 88.0074 9.68514 89.463 8.2056C90.938 6.72606 92.772 5.98629 94.9651 5.98629C96.3818 5.98629 97.6725 6.32697 98.8369 7.00834C100.001 7.68971 100.884 8.60469 101.486 9.75328L98.2547 11.6514C97.9636 11.0479 97.5172 10.5709 96.9156 10.2205C96.3333 9.87008 95.6735 9.69487 94.936 9.69487C93.8103 9.69487 92.8787 10.0745 92.1413 10.8337C91.4038 11.5735 91.035 12.5274 91.035 13.6955C91.035 14.8441 91.4038 15.798 92.1413 16.5572C92.8787 17.297 93.8103 17.6669 94.936 17.6669C95.6929 17.6669 96.3624 17.5014 96.9447 17.1704C97.5463 16.82 97.9927 16.3431 98.2838 15.7396L101.544 17.6085C100.904 18.757 100.001 19.6818 98.8369 20.3826C97.6725 21.064 96.3818 21.4046 94.9651 21.4046Z" fill="white"/>
<path d="M103.647 4.64303C103.026 4.64303 102.482 4.41915 102.017 3.97139C101.57 3.50417 101.347 2.95908 101.347 2.33611C101.347 1.71315 101.57 1.16806 102.017 0.700834C102.482 0.233611 103.026 0 103.647 0C104.287 0 104.831 0.233611 105.277 0.700834C105.743 1.16806 105.976 1.71315 105.976 2.33611C105.976 2.95908 105.743 3.50417 105.277 3.97139C104.831 4.41915 104.287 4.64303 103.647 4.64303ZM101.784 20.9958V6.39511H105.539V20.9958H101.784Z" fill="white"/>
<path d="M115.701 5.98629C117.661 5.98629 119.33 6.7358 120.708 8.2348C122.106 9.71434 122.804 11.5346 122.804 13.6955C122.804 15.8564 122.106 17.6863 120.708 19.1853C119.33 20.6649 117.661 21.4046 115.701 21.4046C113.663 21.4046 112.091 20.6941 110.985 19.2729V26.8361H107.23V6.39511H110.985V8.118C112.091 6.69686 113.663 5.98629 115.701 5.98629ZM112.12 16.674C112.877 17.4332 113.838 17.8129 115.003 17.8129C116.167 17.8129 117.128 17.4332 117.885 16.674C118.661 15.8953 119.049 14.9025 119.049 13.6955C119.049 12.4885 118.661 11.5054 117.885 10.7461C117.128 9.96742 116.167 9.57807 115.003 9.57807C113.838 9.57807 112.877 9.96742 112.12 10.7461C111.364 11.5054 110.985 12.4885 110.985 13.6955C110.985 14.9025 111.364 15.8953 112.12 16.674Z" fill="white"/>
<path d="M126.879 15.2431C127.384 17.0731 128.752 17.9881 130.984 17.9881C132.42 17.9881 133.507 17.5014 134.245 16.528L137.272 18.2801C135.836 20.3631 133.721 21.4046 130.926 21.4046C128.519 21.4046 126.588 20.6746 125.133 19.2145C123.677 17.7545 122.949 15.9148 122.949 13.6955C122.949 11.4956 123.667 9.66567 125.104 8.2056C126.54 6.72606 128.383 5.98629 130.635 5.98629C132.77 5.98629 134.526 6.72606 135.904 8.2056C137.301 9.68514 138 11.5151 138 13.6955C138 14.1822 137.952 14.698 137.854 15.2431H126.879ZM126.821 12.323H134.245C134.031 11.3302 133.585 10.5904 132.905 10.1037C132.246 9.617 131.489 9.37366 130.635 9.37366C129.626 9.37366 128.791 9.63647 128.131 10.1621C127.471 10.6683 127.035 11.3886 126.821 12.323Z" fill="white"/>
<path fill-rule="evenodd" clip-rule="evenodd" d="M13.0908 23.692C18.8382 23.692 23.4975 19.0327 23.4975 13.2852C23.4975 7.53772 18.8382 2.87847 13.0908 2.87847C7.34327 2.87847 2.68401 7.53772 2.68401 13.2852C2.68401 19.0327 7.34327 23.692 13.0908 23.692ZM13.0908 25.7733C19.9877 25.7733 25.5788 20.1822 25.5788 13.2852C25.5788 6.38823 19.9877 0.797119 13.0908 0.797119C6.19377 0.797119 0.602661 6.38823 0.602661 13.2852C0.602661 20.1822 6.19377 25.7733 13.0908 25.7733Z" fill="white"/>
<path fill-rule="evenodd" clip-rule="evenodd" d="M6.18245 13.5509C6.18245 12.9639 6.64979 12.4881 7.22628 12.4881H19.7523C20.3288 12.4881 20.7962 12.9639 20.7962 13.5509C20.7962 14.1379 20.3288 14.6137 19.7523 14.6137H7.22628C6.64979 14.6137 6.18245 14.1379 6.18245 13.5509Z" fill="white"/>
<path fill-rule="evenodd" clip-rule="evenodd" d="M16.0216 11.1288C16.5909 11.2659 17.1677 10.9321 17.31 10.3831C17.4524 9.83406 17.1062 9.27769 16.5368 9.14042L16.279 10.1346C16.5368 9.14042 16.5368 9.14042 16.5368 9.14042L16.5333 9.1396L16.5278 9.1383L16.5107 9.13429C16.4965 9.13101 16.477 9.12657 16.4524 9.12112C16.4031 9.11022 16.3334 9.09529 16.2452 9.07771C16.0691 9.04256 15.8186 8.99662 15.5107 8.95095C14.8972 8.85994 14.0443 8.76824 13.0907 8.76824C12.1372 8.76824 11.2843 8.85994 10.6708 8.95095C10.3629 8.99662 10.1124 9.04256 9.93622 9.07771C9.84806 9.09529 9.77831 9.11022 9.72907 9.12112C9.70444 9.12657 9.68493 9.13101 9.67078 9.13429L9.65362 9.1383L9.64812 9.1396L9.64536 9.14026C9.64536 9.14026 9.6447 9.14042 9.90246 10.1346L9.64536 9.14026C9.07594 9.27753 8.72907 9.83406 8.87143 10.3831C9.01376 10.9321 9.5906 11.2659 10.1599 11.1288L10.1668 11.1272C10.1743 11.1255 10.187 11.1226 10.2045 11.1187C10.2397 11.1109 10.2945 11.0991 10.3669 11.0847C10.5117 11.0558 10.7262 11.0163 10.994 10.9766C11.5318 10.8968 12.273 10.8177 13.0907 10.8177C13.9085 10.8177 14.6497 10.8968 15.1875 10.9766C15.4553 11.0163 15.6697 11.0558 15.8146 11.0847C15.887 11.0991 15.9418 11.1109 15.9769 11.1187C15.9945 11.1226 16.0072 11.1255 16.0146 11.1272L16.0216 11.1288Z" fill="white"/>
<path fill-rule="evenodd" clip-rule="evenodd" d="M10.6336 7.68016L10.6348 7.68021L10.6361 7.68027L10.638 7.68034C10.639 7.68038 10.638 7.68034 10.638 7.68034C10.6366 7.68028 10.6351 7.68022 10.6336 7.68016ZM10.6804 6.64245C10.7275 5.60477 10.7271 5.60475 10.7271 5.60475L10.7256 5.60468L10.7235 5.60459L10.7182 5.60438L10.7042 5.60389C10.6934 5.60355 10.6795 5.60319 10.6628 5.60291C10.6295 5.60235 10.5847 5.6021 10.5299 5.60295C10.4205 5.60466 10.2697 5.61076 10.0892 5.62779C9.73202 5.66152 9.23894 5.73989 8.7135 5.9236C8.18806 6.10732 7.75357 6.35325 7.45321 6.54943C7.30144 6.64856 7.17968 6.73776 7.09305 6.8046C7.04963 6.83809 7.01474 6.8662 6.98902 6.88741C6.97614 6.89803 6.96554 6.90693 6.95728 6.91395L6.94664 6.92305L6.94266 6.92649L6.941 6.92794L6.94026 6.92858C6.94026 6.92858 6.93957 6.92918 7.59305 7.67706L6.93957 6.92918C6.50756 7.30666 6.46336 7.96288 6.84084 8.39489C7.21716 8.82556 7.8705 8.87082 8.30255 8.49709L8.3106 8.49037C8.32013 8.48251 8.33751 8.46843 8.36211 8.44945C8.41153 8.41132 8.48885 8.35439 8.58925 8.28882C8.79321 8.15561 9.07537 7.99792 9.39918 7.8847C9.72299 7.77149 10.0419 7.71901 10.2845 7.69611C10.4038 7.68484 10.4998 7.68119 10.5622 7.68022C10.5933 7.67973 10.6156 7.67992 10.628 7.68013L10.638 7.68034C11.2088 7.70344 11.6921 7.26097 11.7181 6.68963C11.7441 6.11654 11.3002 5.6308 10.7271 5.60475L10.6804 6.64245Z" fill="white"/>
<path fill-rule="evenodd" clip-rule="evenodd" d="M17.145 18.7008L17.1439 18.7011L17.1426 18.7015L17.1408 18.702C17.1399 18.7023 17.1408 18.702 17.1408 18.702C17.1422 18.7016 17.1436 18.7012 17.145 18.7008ZM17.4353 19.6981C17.7252 20.6956 17.7256 20.6955 17.7256 20.6955L17.727 20.6951L17.7291 20.6945L17.7342 20.693L17.7476 20.6889C17.7579 20.6858 17.7712 20.6816 17.787 20.6765C17.8188 20.6663 17.8613 20.6521 17.9129 20.6336C18.0159 20.5967 18.1567 20.5423 18.3221 20.468C18.6493 20.3209 19.0908 20.0878 19.5289 19.7445C19.9671 19.4012 20.2991 19.0283 20.5201 18.7457C20.6319 18.603 20.7183 18.4793 20.7788 18.3881C20.8091 18.3424 20.8331 18.3045 20.8506 18.2761C20.8593 18.262 20.8665 18.2501 20.8721 18.2408L20.8792 18.2288L20.8819 18.2242L20.883 18.2223L20.8835 18.2215C20.8835 18.2215 20.8839 18.2207 20.0242 17.7234L20.8839 18.2207C21.1712 17.7241 21.0014 17.0886 20.5048 16.8014C20.0098 16.515 19.3767 16.6828 19.0882 17.1759L19.0828 17.1849C19.0763 17.1954 19.0644 17.2143 19.0472 17.2402C19.0127 17.2922 18.9579 17.3711 18.884 17.4655C18.7339 17.6573 18.5176 17.8976 18.2476 18.1091C17.9776 18.3207 17.6926 18.4732 17.4704 18.5731C17.361 18.6222 17.2714 18.6566 17.2126 18.6777C17.1833 18.6882 17.1621 18.6952 17.1503 18.699L17.1408 18.702C16.593 18.8642 16.2782 19.4388 16.4378 19.988C16.5979 20.5389 17.1747 20.8556 17.7256 20.6955L17.4353 19.6981Z" fill="white"/>
<path fill-rule="evenodd" clip-rule="evenodd" d="M10.1599 15.7073C9.59062 15.5702 9.0138 15.904 8.87147 16.453C8.72911 17.0021 9.07532 17.5584 9.64474 17.6957L9.9025 16.7015C9.64474 17.6957 9.64474 17.6957 9.64474 17.6957L9.64816 17.6965L9.65366 17.6978L9.67082 17.7018C9.68497 17.7051 9.70449 17.7096 9.72911 17.715C9.77835 17.7259 9.84811 17.7408 9.93626 17.7584C10.1124 17.7936 10.3629 17.8395 10.6708 17.8852C11.2843 17.9762 12.1372 18.0679 13.0908 18.0679C14.0443 18.0679 14.8972 17.9762 15.5107 17.8852C15.8186 17.8395 16.0691 17.7936 16.2453 17.7584C16.3334 17.7408 16.4032 17.7259 16.4524 17.715C16.4771 17.7096 16.4966 17.7051 16.5107 17.7018L16.5279 17.6978L16.5334 17.6965L16.5361 17.6959C16.5361 17.6959 16.5368 17.6957 16.279 16.7015L16.5361 17.6959C17.1056 17.5586 17.4524 17.0021 17.3101 16.453C17.1677 15.904 16.5909 15.5702 16.0216 15.7073L16.0147 15.7089C16.0072 15.7107 15.9945 15.7135 15.977 15.7174C15.9418 15.7252 15.887 15.737 15.8146 15.7514C15.6698 15.7803 15.4553 15.8198 15.1875 15.8595C14.6497 15.9393 13.9085 16.0184 13.0908 16.0184C12.273 16.0184 11.5318 15.9393 10.994 15.8595C10.7262 15.8198 10.5118 15.7803 10.3669 15.7514C10.2945 15.737 10.2397 15.7252 10.2046 15.7174C10.187 15.7135 10.1743 15.7107 10.1669 15.7089L10.1599 15.7073Z" fill="white"/>
</svg>
