<svg width="22" height="24" viewBox="0 0 22 24" fill="none" xmlns="http://www.w3.org/2000/svg">
<path d="M10.662 0.00415097C4.6412 0.151807 0 4.44931 0 9.37728V21.7485C0 22.417 0.987135 22.7512 1.56464 22.2787L2.99234 21.4101C3.37391 21.1781 3.90901 21.2231 4.22469 21.5137L6.68536 23.7801C7.04344 24.0731 7.6238 24.0731 7.98188 23.7801L10.3148 21.6309C10.6797 21.2948 11.3208 21.2948 11.6852 21.6309L14.0181 23.7801C14.3762 24.0731 14.9566 24.0731 15.3146 23.7801L17.7753 21.5137C18.091 21.2231 18.6261 21.1776 19.0077 21.4101L20.4354 22.2787C21.0129 22.7512 22 22.4165 22 21.7485V8.99993C22 3.93743 16.8913 -0.148662 10.662 0.00415097ZM7.33333 10.4999C6.32099 10.4999 5.5 9.82821 5.5 8.99993C5.5 8.17165 6.32099 7.49993 7.33333 7.49993C8.34568 7.49993 9.16667 8.17165 9.16667 8.99993C9.16667 9.82821 8.34568 10.4999 7.33333 10.4999ZM14.6667 10.4999C13.6543 10.4999 12.8333 9.82821 12.8333 8.99993C12.8333 8.17165 13.6543 7.49993 14.6667 7.49993C15.679 7.49993 16.5 8.17165 16.5 8.99993C16.5 9.82821 15.679 10.4999 14.6667 10.4999Z" fill="#E3342F"/>
</svg>
