<svg width="144" height="144" viewBox="0 0 144 144" fill="none" xmlns="http://www.w3.org/2000/svg">
<path fill-rule="evenodd" clip-rule="evenodd" d="M72 132C105.137 132 132 105.137 132 72C132 38.8629 105.137 12 72 12C38.8629 12 12 38.8629 12 72C12 105.137 38.8629 132 72 132ZM72 144C111.765 144 144 111.765 144 72C144 32.2355 111.765 0 72 0C32.2355 0 0 32.2355 0 72C0 111.765 32.2355 144 72 144Z" fill="#25A222"/>
<path fill-rule="evenodd" clip-rule="evenodd" d="M32.1702 73.5319C32.1702 70.1477 34.8647 67.4043 38.1885 67.4043H110.407C113.731 67.4043 116.426 70.1477 116.426 73.5319C116.426 76.9161 113.731 79.6596 110.407 79.6596H38.1885C34.8647 79.6596 32.1702 76.9161 32.1702 73.5319Z" fill="#25A222"/>
<path fill-rule="evenodd" clip-rule="evenodd" d="M88.8976 59.5673C92.18 60.3576 95.5057 58.433 96.3262 55.268C97.147 52.1024 95.151 48.8947 91.868 48.1033L90.3819 53.8351C91.868 48.1033 91.868 48.1033 91.868 48.1033L91.8482 48.0985L91.8165 48.091L91.7176 48.0679C91.636 48.049 91.5235 48.0234 91.3815 47.9919C91.0976 47.9291 90.6955 47.8431 90.1872 47.7417C89.1715 47.539 87.7273 47.2742 85.9522 47.0109C82.415 46.4861 77.4974 45.9575 71.9999 45.9575C66.5023 45.9575 61.5848 46.4861 58.0476 47.0109C56.2725 47.2742 54.8283 47.539 53.8126 47.7417C53.3043 47.8431 52.9022 47.9291 52.6183 47.9919C52.4763 48.0234 52.3637 48.049 52.2822 48.0679L52.1832 48.091L52.1515 48.0985L52.1356 48.1023C52.1356 48.1023 52.1318 48.1033 53.6179 53.8351L52.1356 48.1023C48.8526 48.8937 46.8528 52.1024 47.6735 55.268C48.4941 58.4331 51.8199 60.3576 55.1024 59.5673L55.1421 59.558C55.1852 59.548 55.2582 59.5314 55.3595 59.5089C55.5623 59.4641 55.8782 59.3963 56.2954 59.313C57.1307 59.1464 58.3671 58.9189 59.911 58.6899C63.0118 58.2299 67.2852 57.7739 71.9999 57.7739C76.7145 57.7739 80.988 58.2299 84.0888 58.6899C85.6326 58.9189 86.8691 59.1464 87.7043 59.313C88.1216 59.3963 88.4375 59.4641 88.6402 59.5089C88.7416 59.5314 88.8146 59.548 88.8577 59.558L88.8976 59.5673Z" fill="#25A222"/>
<path fill-rule="evenodd" clip-rule="evenodd" d="M57.8334 39.6841L57.8402 39.6844L57.848 39.6847L57.8589 39.6852C57.8642 39.6854 57.8589 39.6852 57.8589 39.6852C57.8505 39.6848 57.8418 39.6845 57.8334 39.6841ZM58.1029 33.7012C58.375 27.7185 58.3724 27.7183 58.3724 27.7183L58.364 27.718L58.3514 27.7174L58.321 27.7162L58.2404 27.7134C58.1779 27.7114 58.0981 27.7093 58.0019 27.7077C57.8097 27.7045 57.5514 27.7031 57.2353 27.708C56.6045 27.7178 55.735 27.753 54.6945 27.8512C52.6352 28.0456 49.7924 28.4975 46.763 29.5567C43.7336 30.6159 41.2285 32.0338 39.4968 33.1649C38.6217 33.7364 37.9197 34.2507 37.4203 34.6361C37.17 34.8292 36.9688 34.9913 36.8205 35.1135C36.7463 35.1747 36.6851 35.2261 36.6375 35.2666L36.5762 35.319L36.5532 35.3389L36.5437 35.3472L36.5394 35.3509C36.5394 35.3509 36.5354 35.3544 40.303 39.6662L36.5354 35.3544C34.0447 37.5307 33.7898 41.3142 35.9662 43.8049C38.1358 46.2879 41.9027 46.5489 44.3936 44.3941L44.4401 44.3554C44.495 44.3101 44.5952 44.2289 44.7371 44.1195C45.022 43.8996 45.4678 43.5714 46.0466 43.1933C47.2225 42.4253 48.8493 41.5162 50.7162 40.8634C52.5832 40.2107 54.422 39.9081 55.8203 39.7761C56.5086 39.7111 57.0619 39.6901 57.4217 39.6845C57.6008 39.6817 57.7297 39.6827 57.8009 39.6839L57.8589 39.6852C61.1498 39.8183 63.9359 37.2673 64.0857 33.9733C64.2359 30.6691 61.6766 27.8686 58.3724 27.7183L58.1029 33.7012Z" fill="#25A222"/>
<path fill-rule="evenodd" clip-rule="evenodd" d="M95.3748 103.223L95.3682 103.225L95.3608 103.227L95.3503 103.231C95.3452 103.232 95.3503 103.231 95.3503 103.231C95.3584 103.228 95.3667 103.226 95.3748 103.223ZM97.0485 108.974C98.7199 114.725 98.7224 114.724 98.7224 114.724L98.7304 114.722L98.7426 114.718L98.7717 114.709L98.8489 114.686C98.9087 114.668 98.9849 114.644 99.0765 114.615C99.2595 114.556 99.5044 114.474 99.8021 114.367C100.396 114.154 101.208 113.841 102.161 113.412C104.048 112.564 106.593 111.22 109.119 109.241C111.645 107.262 113.559 105.112 114.834 103.483C115.478 102.66 115.977 101.946 116.325 101.421C116.5 101.157 116.638 100.939 116.739 100.775C116.79 100.693 116.831 100.625 116.863 100.571L116.904 100.502L116.92 100.476L116.926 100.465L116.929 100.46C116.929 100.46 116.931 100.455 111.975 97.5884L116.931 100.455C118.588 97.5922 117.609 93.9286 114.746 92.2726C111.891 90.6216 108.242 91.589 106.578 94.4318L106.547 94.4834C106.51 94.544 106.441 94.6532 106.342 94.8025C106.143 95.1024 105.827 95.5569 105.401 96.1014C104.535 97.2075 103.289 98.5926 101.732 99.8124C100.175 101.032 98.5318 101.911 97.2507 102.487C96.6201 102.771 96.1032 102.969 95.7644 103.09C95.5957 103.151 95.4734 103.191 95.4056 103.213L95.3503 103.231C92.1922 104.165 90.3773 107.479 91.2975 110.645C92.2206 113.821 95.5462 115.647 98.7224 114.724L97.0485 108.974Z" fill="#25A222"/>
<path fill-rule="evenodd" clip-rule="evenodd" d="M55.1024 85.9646C51.82 85.1744 48.4944 87.0989 47.6738 90.2639C46.853 93.4295 48.8491 96.6373 52.132 97.4287L53.6181 91.6968C52.132 97.4287 52.132 97.4287 52.132 97.4287L52.1518 97.4334L52.1835 97.4409L52.2824 97.464C52.364 97.4829 52.4765 97.5086 52.6185 97.54C52.9024 97.6028 53.3045 97.6889 53.8128 97.7903C54.8285 97.9929 56.2727 98.2577 58.0478 98.5211C61.585 99.0458 66.5026 99.5745 72.0001 99.5745C77.4977 99.5745 82.4152 99.0458 85.9524 98.5211C87.7275 98.2577 89.1717 97.9929 90.1874 97.7903C90.6957 97.6889 91.0978 97.6028 91.3818 97.54C91.5237 97.5086 91.6363 97.4829 91.7178 97.464L91.8168 97.4409L91.8485 97.4334L91.8644 97.4296C91.8644 97.4296 91.8682 97.4287 90.3821 91.6968L91.8644 97.4296C95.1474 96.6382 97.1472 93.4295 96.3265 90.2639C95.5059 87.0988 92.1801 85.1743 88.8976 85.9646L88.8579 85.9739C88.8148 85.9839 88.7418 86.0005 88.6405 86.023C88.4377 86.0678 88.1218 86.1357 87.7046 86.2189C86.8693 86.3855 85.6329 86.613 84.089 86.842C80.9882 87.302 76.7148 87.758 72.0001 87.758C67.2855 87.758 63.012 87.302 59.9113 86.842C58.3674 86.613 57.1309 86.3855 56.2957 86.2189C55.8784 86.1357 55.5625 86.0678 55.3598 86.023C55.2584 86.0005 55.1854 85.9839 55.1423 85.9739L55.1024 85.9646Z" fill="#25A222"/>
</svg>
