<svg width="144" height="144" viewBox="0 0 144 144" fill="none" xmlns="http://www.w3.org/2000/svg">
<g clip-path="url(#clip0)">
<path d="M17.3746 29.8447C40.6563 -0.324057 83.9865 -5.90712 114.155 17.3746C144.324 40.6563 149.907 83.9865 126.625 114.155C103.344 144.324 60.0135 149.907 29.8447 126.625C-0.324035 103.344 -5.9071 60.0135 17.3746 29.8447Z" fill="url(#paint0_linear)"/>
<path fill-rule="evenodd" clip-rule="evenodd" d="M72 122C99.6142 122 122 99.6142 122 72C122 44.3858 99.6142 22 72 22C44.3858 22 22 44.3858 22 72C22 99.6142 44.3858 122 72 122ZM72 132C105.137 132 132 105.137 132 72C132 38.8629 105.137 12 72 12C38.8629 12 12 38.8629 12 72C12 105.137 38.8629 132 72 132Z" fill="url(#paint1_linear)"/>
<path fill-rule="evenodd" clip-rule="evenodd" d="M38.8085 73.2766C38.8085 70.4564 41.0539 68.1702 43.8237 68.1702H104.006C106.776 68.1702 109.021 70.4564 109.021 73.2766C109.021 76.0968 106.776 78.383 104.006 78.383H43.8237C41.0539 78.383 38.8085 76.0968 38.8085 73.2766Z" fill="url(#paint2_linear)"/>
<path fill-rule="evenodd" clip-rule="evenodd" d="M86.0813 61.6394C88.8167 62.298 91.588 60.6942 92.2719 58.0567C92.9558 55.4187 91.2925 52.7455 88.5566 52.086L87.3182 56.8626C88.5566 52.0861 88.5566 52.086 88.5566 52.086L88.5402 52.0821L88.5138 52.0758L88.4313 52.0566C88.3633 52.0408 88.2696 52.0195 88.1513 51.9933C87.9147 51.9409 87.5795 51.8692 87.156 51.7847C86.3096 51.6159 85.106 51.3951 83.6268 51.1757C80.6791 50.7384 76.5812 50.2979 71.9999 50.2979C67.4186 50.2979 63.3207 50.7384 60.373 51.1757C58.8937 51.3951 57.6902 51.6159 56.8438 51.7847C56.4202 51.8692 56.0851 51.9409 55.8485 51.9933C55.7302 52.0195 55.6364 52.0408 55.5685 52.0566L55.486 52.0758L55.4596 52.0821L55.4463 52.0853C55.4463 52.0853 55.4432 52.086 56.6816 56.8626L55.4463 52.0853C52.7105 52.7448 51.044 55.4187 51.7279 58.0567C52.4118 60.6942 55.1833 62.298 57.9186 61.6394L57.9517 61.6317C57.9877 61.6234 58.0485 61.6095 58.1329 61.5908C58.3019 61.5534 58.5652 61.4969 58.9129 61.4275C59.6089 61.2887 60.6393 61.0991 61.9258 60.9082C64.5098 60.5249 68.071 60.1449 71.9999 60.1449C75.9288 60.1449 79.49 60.5249 82.074 60.9082C83.3605 61.0991 84.3909 61.2887 85.0869 61.4275C85.4346 61.4969 85.6979 61.5534 85.8669 61.5908C85.9513 61.6095 86.0121 61.6234 86.0481 61.6317L86.0813 61.6394Z" fill="url(#paint3_linear)"/>
<path fill-rule="evenodd" clip-rule="evenodd" d="M60.1945 45.0701L60.2002 45.0703L60.2067 45.0706L60.2158 45.071C60.2202 45.0711 60.2158 45.071 60.2158 45.071C60.2087 45.0707 60.2015 45.0704 60.1945 45.0701ZM60.4191 40.0843C60.6458 35.0987 60.6437 35.0986 60.6437 35.0986L60.6367 35.0983L60.6261 35.0979L60.6008 35.0968L60.5337 35.0945C60.4816 35.0928 60.4151 35.0911 60.3349 35.0898C60.1748 35.0871 59.9595 35.0859 59.6961 35.09C59.1704 35.0982 58.4458 35.1275 57.5787 35.2094C55.8627 35.3714 53.4937 35.7479 50.9692 36.6306C48.4446 37.5133 46.3571 38.6949 44.914 39.6374C44.1848 40.1137 43.5998 40.5423 43.1836 40.8634C42.975 41.0243 42.8073 41.1594 42.6837 41.2613C42.6219 41.3123 42.5709 41.3551 42.5312 41.3888L42.4802 41.4325L42.461 41.4491L42.453 41.456L42.4495 41.4591C42.4495 41.4591 42.4462 41.462 45.5859 45.0552L42.4462 41.462C40.3706 43.2756 40.1582 46.4285 41.9718 48.5041C43.7799 50.5733 46.9189 50.7907 48.9947 48.9951L49.0334 48.9628C49.0792 48.9251 49.1627 48.8574 49.2809 48.7662C49.5183 48.583 49.8898 48.3095 50.3722 47.9944C51.3521 47.3544 52.7078 46.5968 54.2635 46.0528C55.8193 45.5089 57.3517 45.2568 58.5169 45.1467C59.0905 45.0926 59.5515 45.075 59.8514 45.0704C60.0007 45.0681 60.1081 45.069 60.1674 45.0699L60.2158 45.071C62.9582 45.182 65.2799 43.0561 65.4047 40.311C65.5299 37.5576 63.3971 35.2238 60.6437 35.0986L60.4191 40.0843Z" fill="url(#paint4_linear)"/>
<path fill-rule="evenodd" clip-rule="evenodd" d="M91.479 98.0194L91.4735 98.021L91.4673 98.0228L91.4586 98.0254C91.4544 98.0267 91.4586 98.0254 91.4586 98.0254C91.4653 98.0234 91.4722 98.0214 91.479 98.0194ZM92.8738 102.811C94.2666 107.604 94.2686 107.603 94.2686 107.603L94.2753 107.601L94.2855 107.598L94.3097 107.591L94.3741 107.572C94.4239 107.556 94.4874 107.537 94.5637 107.512C94.7162 107.463 94.9204 107.395 95.1684 107.306C95.6633 107.129 96.3398 106.867 97.1342 106.51C98.7064 105.804 100.827 104.683 102.933 103.034C105.038 101.385 106.633 99.593 107.695 98.2355C108.232 97.5496 108.647 96.9553 108.938 96.5172C109.083 96.2976 109.199 96.1157 109.283 95.9794C109.325 95.9111 109.359 95.8542 109.386 95.8095L109.42 95.7517L109.433 95.7298L109.438 95.7207L109.441 95.7166C109.441 95.7166 109.443 95.7128 105.312 93.3237L109.443 95.7128C110.823 93.3268 110.007 90.2738 107.622 88.8938C105.243 87.518 102.201 88.3242 100.815 90.6932L100.789 90.7362C100.758 90.7867 100.701 90.8776 100.618 91.0021C100.453 91.252 100.189 91.6307 99.834 92.0845C99.1127 93.0063 98.0737 94.1605 96.7764 95.177C95.4791 96.1935 94.1098 96.9262 93.0423 97.406C92.5168 97.6422 92.086 97.8074 91.8037 97.9085C91.6631 97.9588 91.5611 97.9926 91.5046 98.0108L91.4586 98.0254C88.8268 98.8045 87.3144 101.565 88.0813 104.204C88.8505 106.851 91.6218 108.372 94.2686 107.603L92.8738 102.811Z" fill="url(#paint5_linear)"/>
<path fill-rule="evenodd" clip-rule="evenodd" d="M57.9187 83.6372C55.1833 82.9786 52.412 84.5824 51.7281 87.2199C51.0442 89.8579 52.7075 92.531 55.4434 93.1905L56.6818 88.414C55.4434 93.1905 55.4434 93.1905 55.4434 93.1905L55.4598 93.1945L55.4862 93.2008L55.5687 93.22C55.6366 93.2358 55.7304 93.2571 55.8487 93.2833C56.0853 93.3357 56.4205 93.4074 56.844 93.4919C57.6904 93.6607 58.894 93.8814 60.3732 94.1009C63.3209 94.5382 67.4188 94.9787 72.0001 94.9787C76.5814 94.9787 80.6793 94.5382 83.627 94.1009C85.1062 93.8814 86.3098 93.6607 87.1562 93.4919C87.5797 93.4074 87.9149 93.3357 88.1515 93.2833C88.2698 93.2571 88.3635 93.2358 88.4315 93.22L88.514 93.2008L88.5404 93.1945L88.5537 93.1913C88.5537 93.1913 88.5568 93.1905 87.3184 88.414L88.5537 93.1913C91.2895 92.5318 92.956 89.8579 92.2721 87.2199C91.5882 84.5824 88.8167 82.9786 86.0814 83.6372L86.0483 83.6449C86.0123 83.6532 85.9515 83.6671 85.8671 83.6858C85.6981 83.7232 85.4348 83.7797 85.0871 83.8491C84.3911 83.9879 83.3607 84.1775 82.0742 84.3684C79.4902 84.7517 75.929 85.1317 72.0001 85.1317C68.0712 85.1317 64.51 84.7517 61.926 84.3684C60.6395 84.1775 59.6091 83.9879 58.9131 83.8491C58.5654 83.7797 58.3021 83.7232 58.1331 83.6858C58.0487 83.6671 57.9879 83.6532 57.9519 83.6449L57.9187 83.6372Z" fill="url(#paint6_linear)"/>
</g>
<defs>
<linearGradient id="paint0_linear" x1="29.8447" y1="126.625" x2="114.155" y2="17.3746" gradientUnits="userSpaceOnUse">
<stop stop-color="#26272D"/>
<stop offset="1" stop-color="#52567B"/>
</linearGradient>
<linearGradient id="paint1_linear" x1="72" y1="12" x2="72" y2="132" gradientUnits="userSpaceOnUse">
<stop stop-color="#EEEEEE"/>
<stop offset="1" stop-color="white"/>
</linearGradient>
<linearGradient id="paint2_linear" x1="72" y1="12" x2="72" y2="132" gradientUnits="userSpaceOnUse">
<stop stop-color="#EEEEEE"/>
<stop offset="1" stop-color="white"/>
</linearGradient>
<linearGradient id="paint3_linear" x1="72" y1="12" x2="72" y2="132" gradientUnits="userSpaceOnUse">
<stop stop-color="#EEEEEE"/>
<stop offset="1" stop-color="white"/>
</linearGradient>
<linearGradient id="paint4_linear" x1="72" y1="12" x2="72" y2="132" gradientUnits="userSpaceOnUse">
<stop stop-color="#EEEEEE"/>
<stop offset="1" stop-color="white"/>
</linearGradient>
<linearGradient id="paint5_linear" x1="72" y1="12" x2="72" y2="132" gradientUnits="userSpaceOnUse">
<stop stop-color="#EEEEEE"/>
<stop offset="1" stop-color="white"/>
</linearGradient>
<linearGradient id="paint6_linear" x1="72" y1="12" x2="72" y2="132" gradientUnits="userSpaceOnUse">
<stop stop-color="#EEEEEE"/>
<stop offset="1" stop-color="white"/>
</linearGradient>
<clipPath id="clip0">
<rect width="144" height="144" fill="white"/>
</clipPath>
</defs>
</svg>
