<svg width="380" height="200" viewBox="0 0 380 200" fill="none" xmlns="http://www.w3.org/2000/svg">
<rect width="380" height="200" fill="#ED200E"/>
<path fill-rule="evenodd" clip-rule="evenodd" d="M190.098 115.18C198.428 115.18 205.18 108.428 205.18 100.098C205.18 91.7687 198.428 85.0164 190.098 85.0164C181.769 85.0164 175.016 91.7687 175.016 100.098C175.016 108.428 181.769 115.18 190.098 115.18ZM190.098 118.196C200.093 118.196 208.196 110.093 208.196 100.098C208.196 90.1028 200.093 82 190.098 82C180.103 82 172 90.1028 172 100.098C172 110.093 180.103 118.196 190.098 118.196Z" fill="white"/>
<path fill-rule="evenodd" clip-rule="evenodd" d="M180.086 100.483C180.086 99.6325 180.764 98.9429 181.599 98.9429H199.752C200.588 98.9429 201.265 99.6325 201.265 100.483C201.265 101.334 200.588 102.023 199.752 102.023H181.599C180.764 102.023 180.086 101.334 180.086 100.483Z" fill="white"/>
<path fill-rule="evenodd" clip-rule="evenodd" d="M194.346 96.973C195.171 97.1716 196.007 96.6879 196.213 95.8923C196.419 95.0966 195.917 94.2903 195.092 94.0914L194.719 95.5321C195.092 94.0914 195.092 94.0914 195.092 94.0914L195.087 94.0902L195.079 94.0883L195.054 94.0825C195.034 94.0777 195.006 94.0713 194.97 94.0634C194.899 94.0476 194.797 94.026 194.67 94.0005C194.414 93.9495 194.051 93.883 193.605 93.8168C192.716 93.6849 191.48 93.552 190.098 93.552C188.716 93.552 187.48 93.6849 186.591 93.8168C186.145 93.883 185.782 93.9495 185.526 94.0005C185.399 94.026 185.298 94.0476 185.226 94.0634C185.191 94.0713 185.162 94.0777 185.142 94.0825L185.117 94.0883L185.109 94.0902L185.105 94.0911C185.105 94.0911 185.104 94.0914 185.478 95.5321L185.105 94.0911C184.28 94.2901 183.777 95.0966 183.983 95.8923C184.19 96.6879 185.026 97.1717 185.851 96.973L185.861 96.9707C185.871 96.9682 185.89 96.964 185.915 96.9583C185.966 96.947 186.046 96.93 186.151 96.9091C186.361 96.8672 186.671 96.81 187.059 96.7524C187.839 96.6368 188.913 96.5222 190.098 96.5222C191.283 96.5222 192.357 96.6368 193.137 96.7524C193.525 96.81 193.836 96.8672 194.046 96.9091C194.15 96.93 194.23 96.947 194.281 96.9583C194.306 96.964 194.325 96.9682 194.335 96.9707L194.346 96.973Z" fill="white"/>
<path fill-rule="evenodd" clip-rule="evenodd" d="M186.537 91.9751L186.539 91.9752L186.541 91.9753L186.544 91.9754C186.545 91.9754 186.544 91.9754 186.544 91.9754C186.541 91.9753 186.539 91.9752 186.537 91.9751ZM186.605 90.4712C186.673 88.9674 186.673 88.9674 186.673 88.9674L186.671 88.9673L186.667 88.9671L186.66 88.9668L186.639 88.9661C186.624 88.9656 186.604 88.9651 186.58 88.9647C186.531 88.9639 186.466 88.9635 186.387 88.9648C186.228 88.9672 186.01 88.9761 185.748 89.0008C185.231 89.0496 184.516 89.1632 183.754 89.4294C182.993 89.6957 182.363 90.0521 181.928 90.3364C181.708 90.4801 181.532 90.6093 181.406 90.7062C181.343 90.7548 181.293 90.7955 181.255 90.8262C181.237 90.8416 181.221 90.8545 181.209 90.8647L181.194 90.8779L181.188 90.8829L181.186 90.885L181.185 90.8859C181.185 90.8859 181.184 90.8868 182.131 91.9706L181.184 90.8868C180.558 91.4338 180.493 92.3848 181.041 93.0109C181.586 93.6351 182.533 93.7006 183.159 93.159L183.171 93.1493C183.184 93.1379 183.21 93.1175 183.245 93.09C183.317 93.0347 183.429 92.9522 183.574 92.8572C183.87 92.6641 184.279 92.4356 184.748 92.2715C185.217 92.1075 185.68 92.0314 186.031 91.9982C186.204 91.9819 186.343 91.9766 186.434 91.9752C186.479 91.9745 186.511 91.9748 186.529 91.9751L186.544 91.9754C187.371 92.0088 188.071 91.3676 188.109 90.5396C188.147 89.7091 187.503 89.0051 186.673 88.9674L186.605 90.4712Z" fill="white"/>
<path fill-rule="evenodd" clip-rule="evenodd" d="M195.974 107.946L195.972 107.947L195.97 107.948L195.967 107.948C195.966 107.949 195.967 107.948 195.967 107.948C195.97 107.948 195.972 107.947 195.974 107.946ZM196.394 109.392C196.814 110.837 196.815 110.837 196.815 110.837L196.817 110.837L196.82 110.836L196.828 110.834L196.847 110.828C196.862 110.823 196.881 110.817 196.904 110.81C196.95 110.795 197.012 110.774 197.087 110.748C197.236 110.694 197.44 110.615 197.679 110.508C198.154 110.294 198.793 109.957 199.428 109.459C200.063 108.962 200.545 108.421 200.865 108.012C201.027 107.805 201.152 107.626 201.24 107.493C201.284 107.427 201.318 107.372 201.344 107.331C201.357 107.311 201.367 107.293 201.375 107.28L201.385 107.262L201.389 107.256L201.391 107.253L201.392 107.252C201.392 107.252 201.392 107.251 200.146 106.53L201.392 107.251C201.808 106.531 201.563 105.61 200.843 105.194C200.125 104.779 199.208 105.022 198.79 105.737L198.782 105.75C198.773 105.765 198.755 105.792 198.73 105.83C198.68 105.905 198.601 106.019 198.494 106.156C198.276 106.434 197.963 106.782 197.572 107.089C197.18 107.396 196.767 107.617 196.445 107.761C196.287 107.833 196.157 107.883 196.072 107.913C196.029 107.928 195.998 107.938 195.981 107.944L195.967 107.948C195.174 108.183 194.717 109.016 194.949 109.812C195.181 110.61 196.017 111.069 196.815 110.837L196.394 109.392Z" fill="white"/>
<path fill-rule="evenodd" clip-rule="evenodd" d="M185.851 103.608C185.026 103.41 184.19 103.893 183.983 104.689C183.777 105.485 184.279 106.291 185.104 106.49L185.478 105.049C185.104 106.49 185.104 106.49 185.104 106.49L185.109 106.491L185.117 106.493L185.142 106.499C185.162 106.504 185.191 106.51 185.226 106.518C185.298 106.534 185.399 106.555 185.527 106.581C185.782 106.632 186.145 106.698 186.591 106.765C187.48 106.896 188.716 107.029 190.098 107.029C191.48 107.029 192.716 106.896 193.605 106.765C194.051 106.698 194.414 106.632 194.67 106.581C194.798 106.555 194.899 106.534 194.97 106.518C195.006 106.51 195.034 106.504 195.054 106.499L195.079 106.493L195.087 106.491L195.091 106.49C195.091 106.49 195.092 106.49 194.719 105.049L195.091 106.49C195.916 106.291 196.419 105.485 196.213 104.689C196.007 103.893 195.171 103.41 194.346 103.608L194.336 103.611C194.325 103.613 194.306 103.617 194.281 103.623C194.23 103.634 194.151 103.651 194.046 103.672C193.836 103.714 193.525 103.771 193.137 103.829C192.357 103.944 191.283 104.059 190.098 104.059C188.913 104.059 187.839 103.944 187.059 103.829C186.671 103.771 186.361 103.714 186.151 103.672C186.046 103.651 185.966 103.634 185.915 103.623C185.89 103.617 185.872 103.613 185.861 103.611L185.851 103.608Z" fill="white"/>
</svg>
