<svg width="380" height="200" viewBox="0 0 380 200" fill="none" xmlns="http://www.w3.org/2000/svg">
<rect width="380" height="200" fill="#ED200E"/>
<path d="M179.543 78.4668C179.443 78.3575 179.324 78.2709 179.193 78.2117C179.062 78.1526 178.921 78.1221 178.779 78.1221C178.637 78.1221 178.497 78.1526 178.366 78.2117C178.235 78.2709 178.116 78.3575 178.016 78.4668L172.294 84.6494L170.255 82.4893C170.155 82.38 170.036 82.2933 169.905 82.2342C169.774 82.175 169.633 82.1446 169.491 82.1446C169.349 82.1446 169.209 82.175 169.078 82.2342C168.947 82.2933 168.828 82.38 168.728 82.4893L167.317 84.0244C167.217 84.1333 167.137 84.2626 167.082 84.4051C167.028 84.5475 167 84.7003 167 84.8545C167 85.0087 167.028 85.1614 167.082 85.3039C167.137 85.4463 167.217 85.5757 167.317 85.6846L171.593 90.3135C171.806 90.534 172.089 90.6569 172.384 90.6569C172.678 90.6569 172.961 90.534 173.175 90.3135L174.576 88.7881L181.062 81.7383C181.264 81.5184 181.379 81.2208 181.38 80.91C181.382 80.5992 181.27 80.3003 181.07 80.0781L179.543 78.4668ZM179.543 94.0127C179.443 93.9034 179.324 93.8167 179.193 93.7576C179.062 93.6985 178.921 93.668 178.779 93.668C178.637 93.668 178.497 93.6985 178.366 93.7576C178.235 93.8167 178.116 93.9034 178.016 94.0127L172.294 100.235L170.255 98.0771C170.155 97.9679 170.036 97.8812 169.905 97.8221C169.774 97.7629 169.633 97.7325 169.491 97.7325C169.349 97.7325 169.209 97.7629 169.078 97.8221C168.947 97.8812 168.828 97.9679 168.728 98.0771L167.317 99.6094C167.217 99.7182 167.137 99.8476 167.082 99.99C167.028 100.132 167 100.285 167 100.439C167 100.594 167.028 100.746 167.082 100.889C167.137 101.031 167.217 101.161 167.317 101.27L171.582 105.908C171.795 106.129 172.078 106.252 172.373 106.252C172.667 106.252 172.95 106.129 173.163 105.908L181.061 97.3232C181.262 97.1049 181.376 96.809 181.377 96.4998C181.379 96.1907 181.268 95.8935 181.069 95.6728L179.543 94.0127ZM172.75 110.937C170.37 110.937 168.384 113.037 168.384 115.625C168.384 118.213 170.372 120.312 172.75 120.312C173.894 120.312 174.991 119.819 175.799 118.94C176.608 118.06 177.062 116.868 177.062 115.625C177.062 114.382 176.608 113.189 175.799 112.31C174.991 111.431 173.894 110.937 172.75 110.937ZM211.562 112.5H185.687C185.306 112.5 184.941 112.665 184.671 112.958C184.401 113.251 184.25 113.648 184.25 114.062V117.187C184.25 117.602 184.401 117.999 184.671 118.292C184.941 118.585 185.306 118.75 185.687 118.75H211.562C211.944 118.75 212.309 118.585 212.579 118.292C212.849 117.999 213 117.602 213 117.187V114.062C213 113.648 212.849 113.251 212.579 112.958C212.309 112.665 211.944 112.5 211.562 112.5ZM211.562 81.25H185.687C185.306 81.25 184.941 81.4146 184.671 81.7076C184.401 82.0007 184.25 82.3981 184.25 82.8125V85.9375C184.25 86.3519 184.401 86.7493 184.671 87.0423C184.941 87.3354 185.306 87.5 185.687 87.5H211.562C211.944 87.5 212.309 87.3354 212.579 87.0423C212.849 86.7493 213 86.3519 213 85.9375V82.8125C213 82.3981 212.849 82.0007 212.579 81.7076C212.309 81.4146 211.944 81.25 211.562 81.25ZM211.562 96.875H185.687C185.306 96.875 184.941 97.0396 184.671 97.3326C184.401 97.6257 184.25 98.0231 184.25 98.4375V101.562C184.25 101.977 184.401 102.374 184.671 102.667C184.941 102.96 185.306 103.125 185.687 103.125H211.562C211.944 103.125 212.309 102.96 212.579 102.667C212.849 102.374 213 101.977 213 101.562V98.4375C213 98.0231 212.849 97.6257 212.579 97.3326C212.309 97.0396 211.944 96.875 211.562 96.875Z" fill="white"/>
</svg>
