<svg width="280" height="203" viewBox="0 0 280 203" fill="none" xmlns="http://www.w3.org/2000/svg">
<g clip-path="url(#clip0)">
<path opacity="0.1" d="M19.7878 163.901C27.4875 163.901 33.7294 161.688 33.7294 158.958C33.7294 156.228 27.4875 154.015 19.7878 154.015C12.0881 154.015 5.84619 156.228 5.84619 158.958C5.84619 161.688 12.0881 163.901 19.7878 163.901Z" fill="black"/>
<path opacity="0.1" d="M245.016 184.335C252.716 184.335 258.957 182.123 258.957 179.393C258.957 176.663 252.716 174.45 245.016 174.45C237.316 174.45 231.074 176.663 231.074 179.393C231.074 182.123 237.316 184.335 245.016 184.335Z" fill="black"/>
<path opacity="0.1" d="M165.097 5.69328C143.881 13.8641 120.883 14.244 99.5214 6.55206C69.2465 -4.34644 29.7081 -7.13594 15.057 42.8063C-9.948 128.132 41.2084 158.587 41.2084 158.587C41.2084 158.587 76.9237 166.57 96.699 180.993C124.79 201.48 159.191 208.329 191.598 198.722C212.321 192.577 230.083 182.497 235.161 166.004C249.363 119.877 240.347 92.1522 266.049 79.9903C291.751 67.8283 277.45 22.7732 259.171 21.7506C240.892 20.7281 197.828 31.1787 184.506 10.3919C179.757 3.0119 172.492 2.842 165.097 5.69328Z" fill="black"/>
<path d="M244.452 180.094C244.452 180.094 248.17 167.478 243.752 158.192C241.87 154.309 241.303 149.922 242.134 145.69C242.545 143.684 243.139 141.719 243.91 139.821" stroke="#535461" stroke-width="2" stroke-miterlimit="10"/>
<path d="M241.158 133.955C241.158 135.499 243.965 139.985 243.965 139.985C243.965 139.985 246.772 135.502 246.772 133.955C246.772 133.212 246.476 132.5 245.95 131.974C245.423 131.449 244.709 131.154 243.964 131.154C243.219 131.154 242.505 131.449 241.978 131.974C241.451 132.5 241.155 133.212 241.155 133.955H241.158Z" fill="#F50057"/>
<path d="M236.518 142.521C237.36 143.818 242.162 146.061 242.162 146.061C242.162 146.061 242.076 140.775 241.233 139.478C241.033 139.169 240.773 138.903 240.47 138.695C240.166 138.486 239.824 138.339 239.464 138.262C239.103 138.185 238.731 138.18 238.369 138.247C238.006 138.313 237.66 138.45 237.351 138.65C237.042 138.85 236.775 139.108 236.566 139.411C236.356 139.714 236.209 140.055 236.132 140.414C236.055 140.773 236.049 141.144 236.116 141.506C236.183 141.867 236.32 142.212 236.521 142.521H236.518Z" fill="#F50057"/>
<path d="M236.719 157.154C238.104 157.849 243.383 157.37 243.383 157.37C243.383 157.37 240.632 152.851 239.247 152.156C238.583 151.822 237.812 151.764 237.105 151.997C236.398 152.229 235.812 152.732 235.477 153.395C235.142 154.057 235.084 154.826 235.317 155.531C235.55 156.236 236.055 156.82 236.719 157.154V157.154Z" fill="#F50057"/>
<path d="M239.374 168.195C240.613 169.121 245.905 169.529 245.905 169.529C245.905 169.529 243.959 164.611 242.714 163.694C242.115 163.252 241.365 163.066 240.629 163.176C239.892 163.285 239.23 163.682 238.787 164.279C238.344 164.876 238.157 165.624 238.267 166.358C238.377 167.092 238.775 167.753 239.374 168.195V168.195Z" fill="#F50057"/>
<path d="M248.055 146.36C246.943 147.439 241.76 148.554 241.76 148.554C241.76 148.554 243.03 143.423 244.142 142.345C244.676 141.827 245.395 141.543 246.139 141.553C246.884 141.564 247.594 141.869 248.113 142.402C248.631 142.934 248.917 143.651 248.906 144.393C248.895 145.135 248.589 145.843 248.055 146.36V146.36Z" fill="#F50057"/>
<path d="M250.995 159.307C249.61 160.002 244.331 159.524 244.331 159.524C244.331 159.524 247.082 155.004 248.467 154.324C249.132 153.99 249.902 153.933 250.61 154.165C251.317 154.398 251.902 154.9 252.238 155.563C252.573 156.226 252.63 156.994 252.397 157.7C252.164 158.405 251.66 158.988 250.995 159.323V159.307Z" fill="#F50057"/>
<path d="M252.12 172.284C250.88 173.211 245.589 173.619 245.589 173.619C245.589 173.619 247.534 168.701 248.78 167.784C249.379 167.342 250.129 167.156 250.865 167.265C251.601 167.375 252.264 167.772 252.707 168.369C253.15 168.966 253.337 169.714 253.227 170.448C253.116 171.182 252.718 171.843 252.12 172.284V172.284Z" fill="#F50057"/>
<path d="M19.7938 158.995C19.7938 158.995 27.7529 132.083 18.3067 112.25C14.3411 103.931 13.0399 94.5958 14.8585 85.5693C15.7352 81.2882 17.0035 77.0962 18.6475 73.0459" stroke="#535461" stroke-width="2" stroke-miterlimit="10"/>
<path d="M12.7707 60.5193C12.7707 63.8185 18.7625 73.3887 18.7625 73.3887C18.7625 73.3887 24.7512 63.8123 24.7512 60.5193C24.7512 58.9348 24.1199 57.4152 22.9962 56.2948C21.8725 55.1744 20.3485 54.5449 18.7594 54.5449C17.1702 54.5449 15.6462 55.1744 14.5225 56.2948C13.3989 57.4152 12.7676 58.9348 12.7676 60.5193H12.7707Z" fill="#F50057"/>
<path d="M2.86578 78.7979C4.66579 81.5781 14.9113 86.3539 14.9113 86.3539C14.9113 86.3539 14.7254 75.0723 12.9254 72.3045C12.0449 71.015 10.6934 70.1202 9.15993 69.8111C7.62643 69.502 6.03252 69.8032 4.71881 70.6504C3.40511 71.4976 2.47583 72.8235 2.12957 74.3448C1.78331 75.8661 2.04753 77.4621 2.86578 78.7917V78.7979Z" fill="#F50057"/>
<path d="M3.29641 110.035C6.25203 111.521 17.5199 110.496 17.5199 110.496C17.5199 110.496 11.6335 100.851 8.69336 99.3747C7.99072 99.0214 7.22517 98.8095 6.44041 98.7512C5.65565 98.6928 4.86705 98.7892 4.11963 99.0347C3.37222 99.2803 2.68063 99.6702 2.08435 100.182C1.48807 100.694 0.998775 101.318 0.644407 102.019C0.290038 102.72 0.0775341 103.483 0.0190268 104.265C-0.0394806 105.048 0.0571551 105.834 0.303416 106.579C0.800763 108.085 1.87737 109.331 3.29641 110.045V110.035Z" fill="#F50057"/>
<path d="M8.95058 133.596C11.6119 135.558 22.8922 136.444 22.8922 136.444C22.8922 136.444 18.7407 125.941 16.0763 123.989C14.7986 123.047 13.1978 122.649 11.6262 122.884C10.0546 123.119 8.64076 123.966 7.69584 125.24C6.75091 126.514 6.35225 128.11 6.58756 129.677C6.82287 131.244 7.67288 132.654 8.95058 133.596V133.596Z" fill="#F50057"/>
<path d="M27.4931 86.981C25.1199 89.2793 14.0596 91.6611 14.0596 91.6611C14.0596 91.6611 16.7673 80.707 19.1405 78.4086C20.2806 77.3026 21.8146 76.6934 23.4051 76.7152C24.9957 76.7369 26.5124 77.3877 27.6216 78.5245C28.7309 79.6613 29.3418 81.1908 29.3201 82.7767C29.2983 84.3627 28.6455 85.875 27.5055 86.981H27.4931Z" fill="#F50057"/>
<path d="M33.7665 114.632C30.8109 116.118 19.543 115.092 19.543 115.092C19.543 115.092 25.4294 105.448 28.3695 103.971C29.0722 103.618 29.8377 103.406 30.6225 103.348C31.4073 103.289 32.1959 103.386 32.9433 103.631C33.6907 103.877 34.3823 104.267 34.9786 104.779C35.5748 105.291 36.0641 105.915 36.4185 106.615C36.7729 107.316 36.9854 108.079 37.0439 108.862C37.1024 109.644 37.0058 110.431 36.7595 111.176C36.5132 111.921 36.1222 112.611 35.6086 113.205C35.0951 113.8 34.4691 114.288 33.7665 114.641V114.632Z" fill="#F50057"/>
<path d="M36.1677 142.329C33.5064 144.291 22.2261 145.177 22.2261 145.177C22.2261 145.177 26.3776 134.674 29.042 132.722C30.3197 131.78 31.9204 131.382 33.4921 131.617C35.0637 131.852 36.4775 132.699 37.4224 133.973C38.3673 135.247 38.766 136.843 38.5307 138.41C38.2954 139.977 37.4454 141.387 36.1677 142.329V142.329Z" fill="#F50057"/>
<path d="M117.466 92.6095L100.2 90.3791C99.4995 90.2895 98.9604 90.0239 98.979 89.7922C99.01 89.5605 99.5986 89.4524 100.314 89.5543L117.543 92.0411C118.017 92.109 118.376 92.2882 118.355 92.4457C118.333 92.594 117.936 92.6713 117.466 92.6095Z" fill="#F50057"/>
<path d="M117.574 92.9031L100.256 91.1176C99.5524 91.0465 98.9544 91.1763 98.9327 91.408C98.9111 91.6396 99.4718 91.8837 100.172 91.9455L117.522 93.49C117.999 93.5333 118.389 93.4406 118.404 93.2831C118.417 93.1163 118.048 92.9525 117.574 92.9031Z" fill="#F50057"/>
<path d="M143.555 105.893L160.818 103.662C161.518 103.573 162.057 103.307 162.039 103.075C162.008 102.844 161.419 102.736 160.703 102.838L143.475 105.324C143.001 105.392 142.641 105.571 142.663 105.729C142.685 105.877 143.081 105.954 143.555 105.893Z" fill="#F50057"/>
<path d="M143.443 106.186L160.762 104.401C161.465 104.329 162.063 104.459 162.085 104.691C162.107 104.923 161.546 105.167 160.846 105.228L143.496 106.773C143.019 106.816 142.629 106.724 142.613 106.566C142.601 106.399 142.969 106.235 143.443 106.186Z" fill="#F50057"/>
<path d="M86.4472 124.381H82.2368V184.576H86.4472V124.381Z" fill="#40414D"/>
<path d="M178.406 124.381H174.196V184.576H178.406V124.381Z" fill="#40414D"/>
<path d="M80.6289 119.482H177.91C179.718 119.482 181.452 120.198 182.73 121.472C184.008 122.747 184.726 124.476 184.726 126.278V127.18H73.813V126.278C73.813 124.476 74.5311 122.747 75.8093 121.472C77.0875 120.198 78.8212 119.482 80.6289 119.482V119.482Z" fill="#DFE6F5"/>
<path opacity="0.1" d="M80.3193 119.482H177.601C179.408 119.482 181.142 120.198 182.42 121.472C183.698 122.747 184.417 124.476 184.417 126.278V127.18H73.5034V126.278C73.5034 124.476 74.2215 122.747 75.4997 121.472C76.778 120.198 78.5116 119.482 80.3193 119.482V119.482Z" fill="black"/>
<path d="M80.6289 118.079H177.91C179.718 118.079 181.452 118.795 182.73 120.07C184.008 121.344 184.726 123.073 184.726 124.875V125.778H73.813V124.875C73.813 123.073 74.5311 121.344 75.8093 120.07C77.0875 118.795 78.8212 118.079 80.6289 118.079Z" fill="#DFE6F5"/>
<path d="M129.27 113.18C133.922 113.18 137.693 109.42 137.693 104.781C137.693 100.142 133.922 96.3813 129.27 96.3813C124.617 96.3813 120.846 100.142 120.846 104.781C120.846 109.42 124.617 113.18 129.27 113.18Z" fill="#FFD77C" stroke="#FFAB50" stroke-miterlimit="10"/>
<path d="M129.27 111.438C132.957 111.438 135.946 108.457 135.946 104.781C135.946 101.104 132.957 98.1235 129.27 98.1235C125.582 98.1235 122.593 101.104 122.593 104.781C122.593 108.457 125.582 111.438 129.27 111.438Z" fill="#FFD77C" stroke="#FFAB50" stroke-miterlimit="10"/>
<path d="M129.27 109.853C132.079 109.853 134.357 107.582 134.357 104.781C134.357 101.979 132.079 99.7083 129.27 99.7083C126.46 99.7083 124.183 101.979 124.183 104.781C124.183 107.582 126.46 109.853 129.27 109.853Z" fill="#FFD77C" stroke="#FFAB50" stroke-miterlimit="10"/>
<path d="M129.27 107.632C130.849 107.632 132.129 106.355 132.129 104.781C132.129 103.206 130.849 101.929 129.27 101.929C127.69 101.929 126.41 103.206 126.41 104.781C126.41 106.355 127.69 107.632 129.27 107.632Z" fill="#FFD77C" stroke="#FFAB50" stroke-miterlimit="10"/>
<path d="M124.356 117.73C129.008 117.73 132.78 113.97 132.78 109.331C132.78 104.692 129.008 100.932 124.356 100.932C119.704 100.932 115.932 104.692 115.932 109.331C115.932 113.97 119.704 117.73 124.356 117.73Z" fill="#FFD77C" stroke="#FFAB50" stroke-miterlimit="10"/>
<path d="M124.356 115.988C128.043 115.988 131.032 113.008 131.032 109.331C131.032 105.654 128.043 102.674 124.356 102.674C120.668 102.674 117.679 105.654 117.679 109.331C117.679 113.008 120.668 115.988 124.356 115.988Z" fill="#FFD77C" stroke="#FFAB50" stroke-miterlimit="10"/>
<path d="M124.356 114.403C127.166 114.403 129.443 112.132 129.443 109.331C129.443 106.53 127.166 104.259 124.356 104.259C121.547 104.259 119.269 106.53 119.269 109.331C119.269 112.132 121.547 114.403 124.356 114.403Z" fill="#FFD77C" stroke="#FFAB50" stroke-miterlimit="10"/>
<path d="M124.356 112.182C125.935 112.182 127.215 110.906 127.215 109.331C127.215 107.756 125.935 106.48 124.356 106.48C122.776 106.48 121.496 107.756 121.496 109.331C121.496 110.906 122.776 112.182 124.356 112.182Z" fill="#FFD77C" stroke="#FFAB50" stroke-miterlimit="10"/>
<path d="M134.183 117.73C138.835 117.73 142.607 113.97 142.607 109.331C142.607 104.692 138.835 100.932 134.183 100.932C129.531 100.932 125.759 104.692 125.759 109.331C125.759 113.97 129.531 117.73 134.183 117.73Z" fill="#FFD77C" stroke="#FFAB50" stroke-miterlimit="10"/>
<path d="M134.183 115.988C137.871 115.988 140.86 113.008 140.86 109.331C140.86 105.654 137.871 102.674 134.183 102.674C130.496 102.674 127.507 105.654 127.507 109.331C127.507 113.008 130.496 115.988 134.183 115.988Z" fill="#FFD77C" stroke="#FFAB50" stroke-miterlimit="10"/>
<path d="M134.183 114.403C136.993 114.403 139.27 112.132 139.27 109.331C139.27 106.53 136.993 104.259 134.183 104.259C131.374 104.259 129.096 106.53 129.096 109.331C129.096 112.132 131.374 114.403 134.183 114.403Z" fill="#FFD77C" stroke="#FFAB50" stroke-miterlimit="10"/>
<path d="M134.183 112.182C135.763 112.182 137.043 110.906 137.043 109.331C137.043 107.756 135.763 106.48 134.183 106.48C132.604 106.48 131.324 107.756 131.324 109.331C131.324 110.906 132.604 112.182 134.183 112.182Z" fill="#FFD77C" stroke="#FFAB50" stroke-miterlimit="10"/>
<path d="M111.719 106.884H146.818V108.528C146.818 110.15 146.497 111.757 145.874 113.256C145.251 114.756 144.339 116.118 143.188 117.265C142.037 118.413 140.671 119.323 139.167 119.944C137.664 120.565 136.052 120.884 134.425 120.884H124.111C122.484 120.884 120.872 120.565 119.369 119.944C117.865 119.323 116.499 118.413 115.348 117.265C114.198 116.118 113.285 114.756 112.662 113.256C112.039 111.757 111.719 110.15 111.719 108.528V106.884Z" fill="#F50057"/>
<path opacity="0.1" d="M143.651 106.881C143.56 110.532 142.041 114.002 139.42 116.552C136.799 119.101 133.282 120.529 129.62 120.529H122.652C123.668 120.761 124.707 120.879 125.75 120.881H132.77C134.615 120.882 136.441 120.521 138.145 119.817C139.85 119.114 141.398 118.083 142.703 116.783C144.007 115.483 145.042 113.939 145.748 112.24C146.454 110.541 146.817 108.72 146.817 106.881H143.651Z" fill="black"/>
<path d="M176.302 174.425V170.227H85.0436V174.425H176.302Z" fill="#40414D"/>
<path d="M50.8277 155.566H47.144V188.985H50.8277V155.566Z" fill="#40414D"/>
<path d="M79.9224 155.566H76.2388V188.985H79.9224V155.566Z" fill="#40414D"/>
<path d="M82.8719 150.058C82.8719 152.289 75.2877 154.099 65.9313 154.099C56.5749 154.099 49.3594 152.292 49.3594 150.058C49.3594 147.825 56.5749 146.018 65.9313 146.018C75.2877 146.018 82.8719 147.837 82.8719 150.058Z" fill="#F6C6CD"/>
<path d="M44.1978 150.055H82.8686V153.422C82.8686 154.283 82.5259 155.108 81.9158 155.716C81.3058 156.324 80.4784 156.666 79.6156 156.666H49.7744C48.2954 156.666 46.8769 156.08 45.8311 155.037C44.7853 153.995 44.1978 152.58 44.1978 151.105V150.055Z" fill="#40414D"/>
<path d="M37.6308 111.416L38.4286 111.237C38.9897 111.11 39.5781 111.212 40.0643 111.518C40.5506 111.824 40.895 112.311 41.0216 112.87L50.6797 155.533L49.4709 155.805C48.4562 156.033 47.3921 155.85 46.5126 155.296C45.6331 154.742 45.0104 153.863 44.7813 152.851L35.9868 114.003C35.924 113.726 35.9167 113.438 35.9654 113.158C36.014 112.878 36.1177 112.61 36.2704 112.37C36.4231 112.129 36.6219 111.921 36.8553 111.758C37.0888 111.594 37.3523 111.478 37.6308 111.416Z" fill="#40414D"/>
<path d="M208.328 189.578H212.012V156.159H208.328V189.578Z" fill="#40414D"/>
<path d="M179.233 189.578H182.917V156.159H179.233V189.578Z" fill="#40414D"/>
<path d="M176.29 150.651C176.29 152.882 183.874 154.692 193.231 154.692C202.587 154.692 209.803 152.885 209.803 150.651C209.803 148.418 202.584 146.602 193.231 146.602C183.877 146.602 176.29 148.421 176.29 150.651Z" fill="#F6C6CD"/>
<path d="M209.381 157.262H179.54C178.677 157.262 177.85 156.92 177.24 156.312C176.63 155.704 176.287 154.879 176.287 154.019V150.651H214.958V151.702C214.958 153.176 214.37 154.591 213.325 155.634C212.279 156.676 210.86 157.262 209.381 157.262Z" fill="#40414D"/>
<path d="M209.69 156.398L208.481 156.125L218.141 113.457C218.267 112.897 218.611 112.411 219.098 112.105C219.584 111.798 220.172 111.697 220.733 111.824L221.531 112.003C222.092 112.129 222.58 112.473 222.887 112.958C223.194 113.442 223.296 114.029 223.169 114.589L214.373 153.442C214.145 154.453 213.523 155.332 212.645 155.886C211.767 156.44 210.704 156.624 209.69 156.398V156.398Z" fill="#40414D"/>
<path d="M211.001 137.643L212.089 137.3C212.089 137.3 210.23 124.919 210.248 113.823C210.248 113.514 210.248 113.183 210.248 112.865C210.27 112.173 210.295 111.487 210.329 110.817C210.372 109.958 210.382 109.139 210.375 108.346C210.478 97.6602 206.255 93.147 206.255 93.147C206.255 93.147 201.298 86.0975 198.327 84.726C198.07 83.9228 197.775 82.891 197.515 81.6924C197.611 81.6276 197.704 81.5627 197.794 81.4947C199.021 80.5872 200.195 79.6104 201.31 78.5693C202.835 77.1452 204.297 75.4091 204.216 73.4506C204.225 73.2599 204.219 73.0688 204.198 72.8791C203.916 70.5159 201.453 68.7366 200.458 66.4969C199.622 64.6156 199.873 62.5212 199.142 60.6121C198.41 58.703 195.858 56.9268 193.931 57.9307C193.221 58.3014 192.794 58.9563 192.202 59.4537C190.733 60.6893 188.366 60.8036 186.359 60.2414C184.351 59.6792 183.756 57.387 180.949 57.3809C181.199 57.4642 181.437 57.5772 181.659 57.7176C181.424 57.6782 181.187 57.6575 180.949 57.6558C181.52 57.8359 182.027 58.1772 182.407 58.6382C182.788 59.0993 183.026 59.6605 183.093 60.2538C183.089 60.3283 183.081 60.4025 183.069 60.4762C181.947 61.0786 180.472 60.7357 179.128 60.714C177.783 60.6924 176.253 61.369 176.386 62.4656C176.363 62.5902 176.363 62.7178 176.386 62.8425C176.562 63.6734 177.678 64.3005 177.814 65.0697C177.814 65.0914 177.814 65.1099 177.814 65.1315C175.326 66.3713 172.634 67.154 169.867 67.4422C169.778 67.4422 169.818 67.5503 169.948 67.7079H169.867C169.362 67.7604 172.894 70.5437 173.297 70.726C174.772 71.3932 176.535 71.8844 178.096 72.3972L178.232 72.4404C177.706 73.6591 177.435 74.972 177.436 76.2988C177.436 81.0561 180.866 85.0534 185.51 86.184C186.377 87.1942 187.288 88.3032 188.118 89.406H188.06C188.06 89.406 182.722 96.4863 182.892 107.06C182.877 108.386 182.947 109.711 183.103 111.027C179.67 110.832 172.293 109.93 166.683 105.834C159.114 100.314 150.671 101.97 152.431 105.281C154.191 108.593 163.203 111.351 164.656 111.629C164.793 111.654 165.109 111.728 165.561 111.839C163.77 112.176 162.543 112.766 162.618 113.56C162.763 115.077 170.478 119.908 175.134 120.183C178.211 120.365 181.913 121.311 184.834 122.142C185.116 128.49 183.577 130.393 183.577 130.393C183.577 130.393 184.035 130.674 184.794 131.072L184.469 131.999C182.579 133.087 180.249 134.22 178.13 134.677C175.43 135.231 172.805 136.102 170.31 137.272L159.829 142.323C158.893 142.756 158.084 143.42 157.477 144.252C156.869 145.084 156.485 146.056 156.36 147.077C156.13 149.218 156.778 151.893 160.285 154.015C160.502 155.755 161.568 157.784 164.365 159.644C169.787 163.24 184.035 174.011 185.975 175.482C186.012 178.111 185.665 183.384 182.412 184.206C178.335 185.237 181.616 189.148 184.912 188.994C185.694 189.289 186.546 189.351 187.363 189.173C190.857 188.345 203.665 183.921 204.539 177.305C204.575 177.018 204.591 176.729 204.588 176.44C204.639 175.312 204.357 174.193 203.776 173.224C203.913 173.523 204.024 173.833 204.108 174.15C203.048 171.741 200.468 170.227 198.46 169.375C198.46 169.353 198.46 169.328 198.46 169.307C198.15 169.186 197.84 169.087 197.586 168.998C197.592 168.819 197.578 168.64 197.546 168.463L177.461 154.664C177.461 154.664 186.195 147.488 195.219 148.594C204.244 149.7 205.682 148.066 205.682 148.066C205.682 148.066 210.31 143.676 210.775 138.622L211.066 138.545C211.066 138.545 211.045 138.227 211.001 137.643Z" fill="url(#paint0_linear)"/>
<path d="M186.473 173.585C186.473 173.585 187.294 182.596 183.186 183.69C179.078 184.783 182.914 189.151 186.198 188.323C189.482 187.496 201.537 183.134 202.358 176.585C203.179 170.036 194.141 167.845 194.141 167.845L186.473 173.585Z" fill="#B8616E"/>
<path opacity="0.05" d="M186.473 173.585C186.473 173.585 187.294 182.596 183.186 183.69C179.078 184.783 182.914 189.151 186.198 188.323C189.482 187.496 201.537 183.134 202.358 176.585C203.179 170.036 194.141 167.845 194.141 167.845L186.473 173.585Z" fill="black"/>
<path d="M188.125 173.857C188.125 173.857 188.946 182.868 184.838 183.962C180.73 185.055 184.565 189.423 187.849 188.595C191.133 187.767 203.188 183.406 204.009 176.857C204.83 170.308 195.793 168.117 195.793 168.117L188.125 173.857Z" fill="#B8616E"/>
<path opacity="0.1" d="M196.614 168.396L188.952 174.132C188.952 174.132 188.986 174.521 189.008 175.142C191.902 174.351 198.206 172.251 198.302 168.964C197.751 168.741 197.188 168.551 196.614 168.396V168.396Z" fill="black"/>
<path d="M191.821 89.8787H188.534V92.3376H191.821V89.8787Z" fill="#F8BDC5"/>
<path d="M188.673 129.611C188.673 129.611 183.453 133.701 179.165 134.671C176.616 135.221 174.144 136.084 171.807 137.238L161.946 142.237C161.05 142.686 160.282 143.352 159.711 144.174C159.141 144.996 158.786 145.947 158.68 146.941C158.398 149.722 159.52 153.379 166.212 155.554L187.301 173.032L193.875 167.571L171.417 150.37L188.673 139.719V129.611Z" fill="#758AC8"/>
<path opacity="0.1" d="M188.673 129.611C188.673 129.611 183.453 133.701 179.165 134.671C176.616 135.221 174.144 136.084 171.807 137.238L161.946 142.237C161.05 142.686 160.282 143.352 159.711 144.174C159.141 144.996 158.786 145.947 158.68 146.941C158.398 149.722 159.52 153.379 166.212 155.554L187.301 173.032L193.875 167.571L171.417 150.37L188.673 139.719V129.611Z" fill="black"/>
<path d="M185.658 111.317C185.658 111.317 175.524 111.589 168.402 106.128C161.279 100.666 153.339 102.303 154.981 105.581C156.623 108.858 165.115 111.589 166.484 111.861C167.854 112.133 187.573 117.598 187.573 117.598L185.658 111.317Z" fill="#F8BDC5"/>
<path opacity="0.05" d="M185.658 111.317C185.658 111.317 175.524 111.589 168.402 106.128C161.279 100.666 153.339 102.303 154.981 105.581C156.623 108.858 165.115 111.589 166.484 111.861C167.854 112.133 187.573 117.598 187.573 117.598L185.658 111.317Z" fill="black"/>
<path d="M186.755 127.158L183.468 136.991C183.468 136.991 164.982 148.325 163.473 149.827C162.302 150.994 160.734 155.563 166.212 159.384C171.689 163.206 186.752 175.226 186.752 175.226C186.752 175.226 198.256 172.754 197.435 168.12L178.536 154.466C178.536 154.466 186.752 147.361 195.244 148.458C203.736 149.555 205.106 147.911 205.106 147.911C205.106 147.911 211.68 141.35 209.486 135.079C207.293 128.808 186.755 127.158 186.755 127.158Z" fill="#758AC8"/>
<path d="M182.647 82.6562C182.647 82.6562 191.96 92.7608 191.412 95.7634C190.864 98.7661 198.807 87.0242 198.807 87.0242C198.807 87.0242 196.329 81.0159 196.89 74.4607L182.647 82.6562Z" fill="#F8BDC5"/>
<path opacity="0.1" d="M190.773 91.9236C191.409 91.2548 192.078 90.6186 192.778 90.0176C194.179 88.8717 195.465 87.5918 196.617 86.1963C198.534 83.725 205.654 94.3887 205.654 94.3887C205.654 94.3887 210.035 99.3036 209.489 111.048C208.944 122.793 210.174 138.496 210.174 138.496L208.517 138.956C207.12 139.42 205.635 139.555 204.178 139.348C202.721 139.142 201.332 138.6 200.121 137.766C197.933 136.259 195.164 134.677 193.057 134.535C188.949 134.263 185.25 131.94 185.25 131.94C185.25 131.94 187.031 127.708 184.292 114.051C181.553 100.394 188.534 90.6879 188.534 90.6879C188.534 90.6879 189.085 93.6597 190.773 91.9236Z" fill="black"/>
<path d="M211.131 137.263L209.489 137.81L208.513 138.134C207.117 138.599 205.632 138.733 204.175 138.527C202.718 138.321 201.329 137.779 200.118 136.945C197.933 135.44 195.161 133.856 193.054 133.714C188.952 133.439 184.305 130.436 184.305 130.436C184.305 130.436 187.043 126.887 184.305 113.23C181.566 99.5724 188.549 89.8787 188.549 89.8787C188.549 89.8787 189.101 92.835 190.789 91.0958C191.423 90.4277 192.091 89.7925 192.79 89.1929C194.192 88.047 195.478 86.7671 196.629 85.3716C198.547 82.9003 205.666 93.564 205.666 93.564C205.666 93.564 210.047 98.4788 209.502 110.224C209.443 111.459 209.418 112.732 209.415 114.02C209.375 125.011 211.131 137.263 211.131 137.263Z" fill="#5E52AD"/>
<path opacity="0.1" d="M195.52 110.499L195.792 116.507C195.792 116.507 181.275 117.326 178.263 114.323C175.252 111.32 186.473 123.155 188.952 123.881C191.278 124.564 197.286 125.166 200.437 125.228C201.337 125.257 202.226 125.024 202.996 124.559C203.766 124.093 204.384 123.414 204.774 122.605C205.141 121.809 205.26 120.921 205.115 120.057C204.566 116.507 205.115 108.858 205.115 108.858L195.52 110.499Z" fill="black"/>
<path d="M195.52 109.952L195.793 115.96C195.793 115.96 181.275 116.779 178.264 113.776C175.252 110.774 164.356 111.438 164.57 113.776C164.706 115.278 171.965 120.056 176.343 120.331C180.721 120.606 186.474 122.608 188.952 123.334C191.279 124.017 197.286 124.619 200.437 124.681C201.337 124.71 202.226 124.477 202.996 124.012C203.766 123.546 204.384 122.867 204.775 122.058C205.142 121.262 205.261 120.374 205.115 119.51C204.567 115.96 205.115 108.312 205.115 108.312L195.52 109.952Z" fill="#F8BDC5"/>
<path opacity="0.1" d="M198.807 92.4736C198.807 92.4736 192.509 93.2922 193.33 102.578C194.151 111.864 195.247 112.683 195.247 112.683C195.247 112.683 204.56 111.864 205.654 111.589C206.748 111.314 206.202 101.213 206.202 101.213C206.202 101.213 205.927 92.2017 198.807 92.4736Z" fill="black"/>
<path d="M198.807 92.2016C198.807 92.2016 192.509 93.0202 193.33 102.306C194.151 111.592 195.247 112.411 195.247 112.411C195.247 112.411 204.56 111.592 205.654 111.317C206.748 111.042 206.202 100.941 206.202 100.941C206.202 100.941 205.927 91.9236 198.807 92.2016Z" fill="#5E52AD"/>
<path opacity="0.1" d="M196.477 80.3209C196.047 78.1585 196.93 77.4913 197.162 74.7234L182.911 82.9158C182.911 82.9158 184.543 84.689 186.399 86.9657C187.229 87.1748 188.081 87.2786 188.937 87.2746C192.67 87.29 194.711 83.2927 196.477 80.3209Z" fill="black"/>
<path d="M188.67 87.0119C194.267 87.0119 198.804 82.4879 198.804 76.9073C198.804 71.3267 194.267 66.8027 188.67 66.8027C183.073 66.8027 178.536 71.3267 178.536 76.9073C178.536 82.4879 183.073 87.0119 188.67 87.0119Z" fill="#F8BDC5"/>
<path opacity="0.1" d="M191.226 73.8398C189.677 74.8222 189.655 77.0433 190.653 78.5817C191.651 80.1201 193.37 81.1364 195.024 82.094C195.505 82.372 196.034 82.6593 196.574 82.5975C196.988 82.517 197.372 82.3235 197.683 82.0384C198.84 81.1377 199.945 80.1713 200.991 79.1439C202.497 77.6673 203.944 75.8478 203.709 73.7873C203.442 71.4488 201.125 69.688 200.189 67.4731C199.402 65.6196 199.638 63.5406 198.95 61.647C198.262 59.7533 195.852 58.0018 194.049 58.9934C193.382 59.3579 192.98 60.0097 192.422 60.5009C191.04 61.718 188.813 61.8385 186.923 61.2824C185.033 60.7264 184.472 58.4559 181.836 58.4497C183.146 58.91 184.032 60.2723 183.831 61.5141C182.774 62.1103 181.386 61.7705 180.113 61.7489C178.84 61.7273 177.325 62.4378 177.545 63.5808C177.737 64.5075 179.078 65.1964 178.88 66.1231C176.553 67.3456 174.016 68.1211 171.401 68.4091C170.927 68.4616 174.248 71.214 174.626 71.3963C176.011 72.0574 177.675 72.5424 179.14 73.049C183.121 74.4175 187.199 74.9056 191.226 73.8398Z" fill="black"/>
<path d="M191.226 73.5649C189.677 74.5473 189.655 76.7684 190.653 78.3068C191.651 79.8451 193.37 80.8615 195.024 81.8191C195.505 82.0971 196.034 82.3844 196.574 82.3226C196.988 82.2421 197.372 82.0485 197.683 81.7635C198.84 80.8628 199.945 79.8963 200.991 78.869C202.497 77.3924 203.944 75.5729 203.709 73.5124C203.442 71.1739 201.125 69.4131 200.189 67.1982C199.402 65.3447 199.638 63.2657 198.95 61.3721C198.262 59.4784 195.852 57.7269 194.049 58.7185C193.382 59.083 192.98 59.7348 192.422 60.226C191.04 61.4431 188.813 61.5636 186.923 61.0076C185.033 60.4515 184.472 58.181 181.836 58.1748C183.146 58.6351 184.032 59.9974 183.831 61.2392C182.774 61.8354 181.386 61.4956 180.113 61.474C178.84 61.4524 177.325 62.1629 177.545 63.3059C177.737 64.2326 179.078 64.9215 178.88 65.8482C176.553 67.0707 174.016 67.8461 171.401 68.1342C170.927 68.1867 174.248 70.9391 174.626 71.1214C176.011 71.7825 177.675 72.2675 179.14 72.7741C183.121 74.1457 187.199 74.6245 191.226 73.5649Z" fill="#916168"/>
<path opacity="0.1" d="M203.293 172.825C203.733 173.837 203.887 174.949 203.736 176.041C202.915 182.596 190.864 186.964 187.577 187.78C185.845 188.212 183.958 187.202 183.168 185.988C183.676 187.415 185.863 188.821 187.852 188.327C191.139 187.508 203.191 183.137 204.012 176.588C204.192 175.289 203.939 173.967 203.293 172.825Z" fill="white"/>
<path d="M116.251 180.273C116.006 179.723 114.736 178.651 108.611 178.42C104.416 178.262 102.988 176.053 102.601 173.897C103.979 173.718 105.058 173.471 105.411 173.128C105.411 173.128 105.392 173.029 105.361 172.853L105.411 172.816C105.143 171.261 105.003 169.686 104.993 168.108C104.984 166.758 105.128 165.411 105.42 164.092C105.591 163.22 105.662 162.332 105.634 161.445C105.668 156.193 103.818 146.963 103.818 146.963L103.564 139.293C103.539 138.335 103.255 137.403 102.743 136.593C102.231 135.783 101.51 135.126 100.655 134.69C100.047 134.376 99.3729 134.209 98.6878 134.202C98.6878 134.202 88.9783 132.676 80.2385 131.845C79.6188 131.347 77.4346 130.007 72.4281 130.776L69.5468 122.367C69.5235 122.265 69.507 122.162 69.4972 122.058C69.5995 120.989 70.3151 119.38 73.6518 119.278L74.3489 119.896C74.3489 119.896 74.4728 119.652 74.6804 119.278C78.8195 119.232 101.368 119.003 102.53 119.278C103.809 119.587 115.018 117.097 115.34 116.788C119.696 112.553 102.53 114.607 102.53 114.607C100.841 114.882 95.3852 114.555 89.7962 114.101C92.5628 109.964 95.1653 95.924 95.1653 95.924C95.1653 95.924 105.079 90.9412 102.21 88.1394C99.3415 85.3375 90.6823 94.3671 90.6823 94.3671C90.6823 94.3671 87.1597 104.645 85.5579 107.759C84.9383 108.994 84.1359 109.247 83.4202 109.105C83.7455 108.846 83.9562 108.691 83.9562 108.691C83.9562 108.691 76.9111 103.085 76.2698 100.907C76.1503 100.55 75.9924 100.207 75.7988 99.8843C75.4611 97.9103 74.8694 95.9673 73.4257 94.6729C73.1832 94.4133 72.9154 94.1784 72.6263 93.9717C72.236 93.6937 71.7929 93.4527 71.4243 93.15C71.6318 92.1985 71.8735 91.21 72.1244 90.2524C77.3541 89.6345 81.4188 85.3097 81.4188 80.0582C81.418 79.2662 81.3234 78.4772 81.1369 77.7073C81.9185 77.7587 82.7001 77.6075 83.4058 77.2687C84.1115 76.9299 84.7174 76.4148 85.1645 75.7735C86.221 74.2043 86.1869 72.0666 85.3008 70.4108C84.9345 69.7385 84.4545 69.1345 83.8819 68.6253C82.9689 67.7084 81.8555 67.0148 80.6288 66.5988C79.5662 66.2312 78.392 66.0118 77.5493 65.2921C77.1727 64.801 76.8301 64.285 76.5238 63.7475C76.1702 63.2198 75.7541 62.7365 75.2845 62.308C73.7355 60.717 71.5482 59.7378 69.3206 59.3053C66.6067 58.7771 63.8029 58.9655 61.0424 59.1539C60.0108 59.225 58.7994 59.4073 58.3347 60.3031C57.9846 60.9765 58.2138 61.7828 58.1674 62.5335C58.0217 64.9214 55.283 66.2404 52.9005 66.8181C50.5181 67.3958 47.6771 67.8962 46.5277 69.9907C45.4836 71.8812 46.2179 74.1734 46.5525 76.2956C47.1097 80.0219 46.2799 83.8228 44.2196 86.9809C43.1724 88.578 41.8216 89.999 40.9944 91.7135C40.078 93.6248 39.8652 95.7966 40.3934 97.8486C40.5483 98.4478 40.7713 99.0595 40.6598 99.6711C40.533 100.176 40.2841 100.641 39.9348 101.027C38.5102 102.781 36.7372 104.223 34.7272 105.261C32.7172 106.299 30.5137 106.912 28.2549 107.06C28.4446 107.688 28.8152 108.245 29.3206 108.664C29.9627 109.297 30.7115 109.812 31.5327 110.187C33.6962 111.268 35.9712 112.113 38.3176 112.704C39.8977 113.103 41.549 113.387 43.1569 113.115C44.7648 112.843 46.3325 111.926 46.9924 110.474C47.3766 109.634 47.4323 108.682 47.7731 107.826C48.4516 106.115 50.1339 105.006 51.2709 103.539C50.888 107.32 50.7071 111.119 50.7287 114.919C50.7287 116.108 50.7287 117.18 50.7287 118.175C50.7287 122.466 50.4189 125.425 47.7514 130.785C47.4335 131.348 47.2942 131.995 47.3518 132.638C47.2938 132.986 47.3276 133.343 47.4498 133.674C47.572 134.005 47.7784 134.299 48.0489 134.526C47.8629 135.595 47.7727 136.678 47.7793 137.763C47.7421 141.668 49.065 146.91 56.0792 148.239L68.5678 147.621C68.5678 147.621 86.1807 144.195 90.9828 146.694C91.3791 146.778 91.7346 146.995 91.9899 147.309C92.2453 147.622 92.3852 148.014 92.3862 148.418C92.3714 148.678 92.3309 148.935 92.2654 149.187C92.1316 149.996 92.0808 150.817 92.1136 151.637C92.0919 156.888 93.2258 168.806 93.2258 168.806V173.86C92.4265 175.059 91.4413 176.832 91.5683 178.139C91.5683 178.166 91.5683 178.197 91.5683 178.225C91.5683 178.253 91.5683 178.302 91.5869 178.339C91.6055 178.376 91.5869 178.407 91.6086 178.441C91.6303 178.475 91.6272 178.506 91.6365 178.54C91.6458 178.574 91.6613 178.614 91.6768 178.648C91.6922 178.682 91.6985 178.704 91.7108 178.732C91.7232 178.759 91.7511 178.812 91.7728 178.849L91.81 178.914C91.8472 178.973 91.8887 179.03 91.9339 179.084C93.5356 180.937 101.538 184.524 104.103 184.379C106.827 184.224 115.951 184.687 116.273 180.641C116.314 180.52 116.306 180.388 116.251 180.273V180.273Z" fill="url(#paint1_linear)"/>
<path d="M93.4862 172.451C93.4862 172.451 89.7685 177.085 91.3175 178.939C92.8666 180.792 100.612 184.335 103.09 184.19C105.724 184.036 114.554 184.499 114.863 180.483C114.863 180.483 115.483 178.63 107.428 178.321C99.3727 178.012 101.851 169.671 101.851 169.671L93.4862 172.451Z" fill="#594C76"/>
<path opacity="0.1" d="M49.1827 133.528C49.1827 133.528 45.465 146.194 56.6183 148.356L68.701 147.738C68.701 147.738 85.7407 144.34 90.3879 146.812C90.3879 146.812 92.2468 147.12 91.6272 149.592C91.0075 152.063 92.5566 168.745 92.5566 168.745V174.305C92.5566 174.305 103.09 174.305 104.33 173.069C104.33 173.069 103.4 168.127 104.33 164.111C105.259 160.095 102.78 147.429 102.78 147.429L102.536 139.805C102.518 138.863 102.248 137.943 101.755 137.14C101.261 136.336 100.562 135.678 99.7288 135.233C99.1425 134.924 98.4901 134.758 97.8265 134.752C97.8265 134.752 76.7592 131.353 69.3237 131.971C61.8882 132.589 49.1827 133.528 49.1827 133.528Z" fill="black"/>
<path d="M49.1827 133.219C49.1827 133.219 45.465 145.885 56.6183 148.047L68.701 147.429C68.701 147.429 85.7407 144.031 90.3879 146.503C90.3879 146.503 92.2468 146.812 91.6272 149.283C91.0075 151.754 92.5566 168.436 92.5566 168.436V173.996C92.5566 173.996 103.09 173.996 104.33 172.76C104.33 172.76 103.4 167.818 104.33 163.802C105.259 159.786 102.78 147.121 102.78 147.121L102.536 139.497C102.518 138.555 102.248 137.634 101.755 136.831C101.261 136.027 100.562 135.369 99.7288 134.925C99.1425 134.615 98.4901 134.449 97.8265 134.443C97.8265 134.443 76.7592 131.045 69.3237 131.662C61.8882 132.28 49.1827 133.219 49.1827 133.219Z" fill="#8B9CD1"/>
<path d="M81.0937 108.197C81.0937 108.197 83.5722 111.287 85.1213 108.197C86.6704 105.108 90.0783 94.9141 90.0783 94.9141C90.0783 94.9141 98.4433 85.9556 101.232 88.7358C104.02 91.516 94.4157 96.4587 94.4157 96.4587C94.4157 96.4587 91.0078 115.302 87.9096 115.611C84.8115 115.92 80.1643 115.611 80.1643 115.611L78.6152 112.213L81.0937 108.197Z" fill="#F8BDC5"/>
<path opacity="0.05" d="M81.0937 108.197C81.0937 108.197 83.5722 111.287 85.1213 108.197C86.6704 105.108 90.0783 94.9141 90.0783 94.9141C90.0783 94.9141 98.4433 85.9556 101.232 88.7358C104.02 91.516 94.4157 96.4587 94.4157 96.4587C94.4157 96.4587 91.0078 115.302 87.9096 115.611C84.8115 115.92 80.1643 115.611 80.1643 115.611L78.6152 112.213L81.0937 108.197Z" fill="black"/>
<path d="M69.9404 92.7515C69.9404 92.7515 75.5171 99.2387 76.1367 101.401C76.7563 103.563 83.5722 109.124 83.5722 109.124C83.5722 109.124 78.6152 112.831 79.5446 114.684C80.4741 116.538 73.0385 108.506 73.0385 108.506L64.3638 95.8406L69.9404 92.7515Z" fill="#EB6475"/>
<path opacity="0.1" d="M69.9404 92.7515C69.9404 92.7515 75.5171 99.2387 76.1367 101.401C76.7563 103.563 83.5722 109.124 83.5722 109.124C83.5722 109.124 78.6152 112.831 79.5446 114.684C80.4741 116.538 73.0385 108.506 73.0385 108.506L64.3638 95.8406L69.9404 92.7515Z" fill="black"/>
<path d="M73.6583 85.3375C73.6583 85.3375 70.87 94.2961 70.87 97.6941C70.87 101.092 59.0971 96.7674 59.4069 94.9139C59.7167 93.0604 66.2228 86.2643 66.5326 83.4841C66.8424 80.7038 73.6583 85.3375 73.6583 85.3375Z" fill="#F8BDC5"/>
<path opacity="0.1" d="M64.3633 91.5159C64.3633 91.5159 53.5199 88.7356 51.9708 104.49C50.4217 120.245 53.2101 122.098 48.5629 131.675C43.9157 141.251 80.1638 132.91 80.1638 132.91C80.1638 132.91 78.3049 130.748 72.4185 131.675L69.6302 123.334C69.6302 123.334 68.7007 119.627 73.9675 119.627C79.2344 119.627 76.7559 108.815 76.7559 108.815C76.7559 108.815 73.9675 99.5476 72.4185 98.6209C70.8694 97.6942 68.0811 92.1337 64.3633 91.5159Z" fill="black"/>
<path d="M64.3633 90.8979C64.3633 90.8979 53.5199 88.1177 51.9708 103.872C50.4217 119.627 53.2101 121.48 48.5629 131.057C43.9157 140.633 80.1638 132.292 80.1638 132.292C80.1638 132.292 78.3049 130.13 72.4185 131.057L69.6302 122.716C69.6302 122.716 68.7007 119.009 73.9675 119.009C79.2344 119.009 76.7559 108.197 76.7559 108.197C76.7559 108.197 73.9675 98.9297 72.4185 98.003C70.8694 97.0762 68.0811 91.5158 64.3633 90.8979Z" fill="#EB6475"/>
<path d="M75.2073 113.14C75.2073 113.14 97.8236 115.611 101.541 114.993C101.541 114.993 118.147 112.955 113.934 117.156C113.624 117.465 102.781 119.936 101.541 119.627C100.302 119.318 73.968 119.627 73.968 119.627L73.6582 116.538L75.2073 113.14Z" fill="#F8BDC5"/>
<path opacity="0.1" d="M57.8579 105.417L74.278 120.245C74.278 120.245 77.3761 114.067 78.3056 114.067C79.235 114.067 67.1523 95.8407 67.1523 95.8407C67.1523 95.8407 64.0542 92.1338 62.1953 93.9872C60.3364 95.8407 54.7597 94.6051 57.8579 105.417Z" fill="black"/>
<path d="M57.5478 104.799L73.9679 119.627C73.9679 119.627 77.0661 113.449 77.9955 113.449C78.9249 113.449 66.8422 95.2228 66.8422 95.2228C66.8422 95.2228 63.7441 91.5158 61.8852 93.3693C60.0263 95.2228 54.4497 93.9871 57.5478 104.799Z" fill="#EB6475"/>
<path d="M70.8698 90.8981C76.5163 90.8981 81.0937 86.334 81.0937 80.7039C81.0937 75.0739 76.5163 70.5098 70.8698 70.5098C65.2234 70.5098 60.646 75.0739 60.646 80.7039C60.646 86.334 65.2234 90.8981 70.8698 90.8981Z" fill="#F8BDC5"/>
<path opacity="0.1" d="M79.8235 78.1431C81.5585 78.8258 83.6838 78.0071 84.7062 76.4533C85.7286 74.8995 85.6976 72.7834 84.8363 71.1338C83.975 69.4842 82.3826 68.2856 80.626 67.6616C79.5602 67.2847 78.3736 67.0685 77.5557 66.29C77.0383 65.7988 76.7316 65.1347 76.3443 64.5354C74.8975 62.2865 72.3168 60.9582 69.6926 60.4361C67.0685 59.914 64.3546 60.0994 61.684 60.2847C60.6864 60.3558 59.5153 60.5349 59.0629 61.4246C58.7252 62.0919 58.9452 62.892 58.9018 63.6364C58.7624 66.0058 56.1135 67.3187 53.7992 67.8871C51.4849 68.4555 48.8019 68.9899 47.6742 71.0782C46.6642 72.9533 47.3861 75.2269 47.699 77.3337C48.2341 81.0138 47.4343 84.7634 45.4435 87.9078C44.4305 89.4926 43.1261 90.9012 42.3237 92.6033C41.4361 94.5054 41.2305 96.6538 41.7413 98.689C41.8931 99.2852 42.1069 99.8906 42.0015 100.496C41.8801 100.994 41.6399 101.455 41.3013 101.84C39.9435 103.572 38.2364 105.001 36.2901 106.035C34.3439 107.068 32.2018 107.683 30.0024 107.839C30.3556 109.164 31.6414 110.001 32.8651 110.619C34.9533 111.69 37.154 112.527 39.427 113.115C40.9543 113.511 42.553 113.792 44.1083 113.523C45.6635 113.254 47.1785 112.343 47.826 110.903C48.1978 110.069 48.2536 109.127 48.582 108.275C49.3224 106.362 51.2959 105.207 52.3555 103.449C53.3686 101.769 53.762 101.571 54.0192 99.6311C54.2763 97.6912 54.8433 95.5967 56.4419 94.4568C58.1149 93.2613 60.4695 93.4899 62.3284 94.4074C64.1873 95.3249 65.3367 94.9665 66.8888 96.3134C69.6117 98.6719 72.6592 100.63 75.9385 102.127C75.6287 99.4334 75.1299 96.4277 72.9364 94.8244C72.3168 94.3642 71.5329 94.012 71.2045 93.3077C70.6809 92.1863 71.5763 90.8178 71.1704 89.647C70.7646 88.4762 69.2217 88.0438 68.537 86.9811C67.9546 86.0791 68.1126 84.8527 68.6579 83.9259C69.2031 82.9992 70.0644 82.3134 70.9226 81.6647C71.6847 81.0901 72.4572 80.5289 73.24 79.9811C73.9474 79.5335 74.5825 78.9815 75.1237 78.3439C75.4335 77.9206 75.638 76.9939 76.0686 76.6943C77.1529 75.9467 78.8197 77.7507 79.8235 78.1431Z" fill="black"/>
<path d="M79.5135 77.834C81.2484 78.5167 83.3737 77.6981 84.3961 76.1442C85.4185 74.5904 85.3875 72.4743 84.5262 70.8247C83.665 69.1751 82.0725 67.9765 80.3159 67.3525C79.2501 66.9756 78.0635 66.7594 77.2456 65.9809C76.7282 65.4898 76.4215 64.8256 76.0343 64.2263C74.5874 61.9774 72.0067 60.6491 69.3826 60.127C66.7585 59.6049 64.0445 59.7903 61.3739 59.9756C60.3763 60.0467 59.2052 60.2259 58.7529 61.1155C58.4152 61.7828 58.6352 62.5829 58.5918 63.3274C58.4524 65.6967 55.8035 67.0096 53.4892 67.578C51.1748 68.1464 48.4919 68.6808 47.3641 70.7691C46.3541 72.6442 47.076 74.9178 47.3889 77.0246C47.924 80.7047 47.1242 84.4543 45.1335 87.5988C44.1204 89.1835 42.8161 90.5921 42.0137 92.2943C41.126 94.1964 40.9204 96.3447 41.4312 98.3799C41.583 98.9761 41.7968 99.5816 41.6915 100.187C41.57 100.685 41.3298 101.146 40.9913 101.531C39.6335 103.263 37.9263 104.692 35.9801 105.725C34.0338 106.759 31.8918 107.374 29.6924 107.53C30.0456 108.855 31.3313 109.692 32.5551 110.31C34.6433 111.381 36.8439 112.218 39.1169 112.806C40.6443 113.202 42.2429 113.483 43.7982 113.214C45.3535 112.945 46.8684 112.034 47.5159 110.594C47.8877 109.76 47.9435 108.818 48.2719 107.965C49.0123 106.053 50.9859 104.898 52.0454 103.14C53.0585 101.46 53.452 101.262 53.7091 99.3221C53.9663 97.3821 54.5332 95.2876 56.1319 94.1478C57.8048 92.9523 60.1594 93.1809 62.0183 94.0983C63.8772 95.0158 65.0266 94.6575 66.5788 96.0043C69.3017 98.3629 72.3491 100.321 75.6284 101.818C75.3186 99.1244 74.8198 96.1186 72.6263 94.5154C72.0067 94.0551 71.2229 93.7029 70.8945 92.9986C70.3709 91.8772 71.2662 90.5087 70.8604 89.338C70.4545 88.1672 68.9117 87.7347 68.227 86.672C67.6445 85.77 67.8025 84.5436 68.3478 83.6169C68.8931 82.6901 69.7543 82.0043 70.6125 81.3556C71.3747 80.781 72.1471 80.2198 72.9299 79.672C73.6373 79.2245 74.2724 78.6724 74.8136 78.0348C75.1234 77.6116 75.3279 76.6848 75.7585 76.3852C76.8429 75.6376 78.5097 77.4417 79.5135 77.834Z" fill="#916168"/>
<g opacity="0.1">
<path opacity="0.1" d="M101.498 172.105C101.521 171.283 101.64 170.466 101.851 169.671L101.696 169.724C101.542 170.508 101.475 171.307 101.498 172.105V172.105Z" fill="white"/>
<path opacity="0.1" d="M103.091 183.572C100.612 183.718 92.8669 180.174 91.3178 178.321C91.1144 178.07 90.9894 177.765 90.9585 177.444C90.913 177.704 90.9215 177.971 90.9833 178.228C91.0451 178.485 91.1589 178.727 91.3178 178.939C92.8669 180.792 100.612 184.335 103.091 184.19C105.724 184.036 114.554 184.499 114.864 180.483C114.887 180.372 114.872 180.257 114.82 180.156C114.111 183.857 105.659 183.421 103.091 183.572Z" fill="white"/>
</g>
<path d="M115.638 91.3613H115.328V104.027H115.638V91.3613Z" fill="#FFD77C" stroke="#FFAB50" stroke-width="0.25" stroke-miterlimit="10"/>
<path d="M115.948 91.3613H115.638V104.027H115.948V91.3613Z" fill="#FFD77C" stroke="#FFAB50" stroke-width="0.25" stroke-miterlimit="10"/>
<path d="M116.258 91.3613H115.948V104.027H116.258V91.3613Z" fill="#FFD77C" stroke="#FFAB50" stroke-width="0.25" stroke-miterlimit="10"/>
<path d="M116.567 91.3613H116.257V104.027H116.567V91.3613Z" fill="#FFD77C" stroke="#FFAB50" stroke-width="0.25" stroke-miterlimit="10"/>
<path d="M116.877 91.3613H116.567V104.027H116.877V91.3613Z" fill="#FFD77C" stroke="#FFAB50" stroke-width="0.25" stroke-miterlimit="10"/>
<path d="M117.187 91.3613H116.877V104.027H117.187V91.3613Z" fill="#FFD77C" stroke="#FFAB50" stroke-width="0.25" stroke-miterlimit="10"/>
<path d="M117.496 91.3613H117.187V104.027H117.496V91.3613Z" fill="#FFD77C" stroke="#FFAB50" stroke-width="0.25" stroke-miterlimit="10"/>
</g>
<defs>
<linearGradient id="paint0_linear" x1="182.136" y1="189.287" x2="182.136" y2="57.3809" gradientUnits="userSpaceOnUse">
<stop stop-color="#808080" stop-opacity="0.25"/>
<stop offset="0.54" stop-color="#808080" stop-opacity="0.12"/>
<stop offset="1" stop-color="#808080" stop-opacity="0.1"/>
</linearGradient>
<linearGradient id="paint1_linear" x1="33609.9" y1="90134.6" x2="33609.9" y2="39213.2" gradientUnits="userSpaceOnUse">
<stop stop-color="#808080" stop-opacity="0.25"/>
<stop offset="0.54" stop-color="#808080" stop-opacity="0.12"/>
<stop offset="1" stop-color="#808080" stop-opacity="0.1"/>
</linearGradient>
<clipPath id="clip0">
<rect width="280" height="203" fill="white"/>
</clipPath>
</defs>
</svg>
