<svg width="163" height="37" viewBox="0 0 163 37" fill="none" xmlns="http://www.w3.org/2000/svg">
<path d="M76.1162 11.4342H80.1783L75.4639 26.124H71.8169L69.0891 17.222L66.3613 26.124H62.7144L58 11.4342H62.0621L64.5823 20.4538L67.2805 11.4342H70.8978L73.5959 20.4831L76.1162 11.4342Z" fill="#26272D"/>
<path d="M83.1136 20.3362C83.6276 22.1774 85.0211 23.0979 87.2943 23.0979C88.757 23.0979 89.864 22.6083 90.6151 21.6289L93.6987 23.3917C92.236 25.4875 90.0814 26.5354 87.235 26.5354C84.7839 26.5354 82.8171 25.8009 81.3346 24.3319C79.8521 22.8629 79.1109 21.012 79.1109 18.7791C79.1109 16.5658 79.8422 14.7247 81.305 13.2557C82.7677 11.7671 84.6455 11.0229 86.9385 11.0229C89.1128 11.0229 90.9017 11.7671 92.3052 13.2557C93.7284 14.7443 94.44 16.5854 94.44 18.7791C94.44 19.2688 94.3905 19.7878 94.2917 20.3362H83.1136ZM83.0543 17.3983H90.6151C90.3977 16.3993 89.943 15.6551 89.2512 15.1654C88.5791 14.6757 87.8082 14.4309 86.9385 14.4309C85.9106 14.4309 85.0606 14.6953 84.3886 15.2242C83.7165 15.7334 83.2718 16.4581 83.0543 17.3983Z" fill="#26272D"/>
<path d="M103.959 11.0229C105.956 11.0229 107.656 11.7769 109.059 13.2851C110.482 14.7737 111.194 16.605 111.194 18.7791C111.194 20.9532 110.482 22.7943 109.059 24.3025C107.656 25.7911 105.956 26.5354 103.959 26.5354C101.884 26.5354 100.283 25.8205 99.1559 24.3906V26.124H95.3311V5.55822H99.1559V13.1676C100.283 11.7378 101.884 11.0229 103.959 11.0229ZM100.312 21.7758C101.083 22.5397 102.062 22.9217 103.248 22.9217C104.434 22.9217 105.412 22.5397 106.183 21.7758C106.974 20.9924 107.369 19.9935 107.369 18.7791C107.369 17.5647 106.974 16.5756 106.183 15.8118C105.412 15.0283 104.434 14.6366 103.248 14.6366C102.062 14.6366 101.083 15.0283 100.312 15.8118C99.5414 16.5756 99.1559 17.5647 99.1559 18.7791C99.1559 19.9935 99.5414 20.9924 100.312 21.7758Z" fill="#26272D"/>
<path d="M119.169 26.5354C116.935 26.5354 115.067 25.7911 113.565 24.3025C112.083 22.8139 111.341 20.9728 111.341 18.7791C111.341 16.5854 112.083 14.7443 113.565 13.2557C115.067 11.7671 116.935 11.0229 119.169 11.0229C120.612 11.0229 121.927 11.3656 123.113 12.0511C124.299 12.7367 125.198 13.6572 125.811 14.8128L122.52 16.7225C122.223 16.1153 121.768 15.6355 121.156 15.2829C120.563 14.9304 119.891 14.7541 119.139 14.7541C117.993 14.7541 117.044 15.136 116.293 15.8999C115.542 16.6442 115.166 17.6039 115.166 18.7791C115.166 19.9347 115.542 20.8944 116.293 21.6583C117.044 22.4026 117.993 22.7748 119.139 22.7748C119.91 22.7748 120.592 22.6083 121.185 22.2753C121.798 21.9227 122.253 21.4429 122.549 20.8357L125.87 22.716C125.218 23.8716 124.299 24.802 123.113 25.5071C121.927 26.1926 120.612 26.5354 119.169 26.5354Z" fill="#26272D"/>
<path d="M128.012 9.67138C127.379 9.67138 126.826 9.44614 126.351 8.99565C125.896 8.52557 125.669 7.97715 125.669 7.35038C125.669 6.72361 125.896 6.17519 126.351 5.70511C126.826 5.23504 127.379 5 128.012 5C128.664 5 129.217 5.23504 129.672 5.70511C130.146 6.17519 130.384 6.72361 130.384 7.35038C130.384 7.97715 130.146 8.52557 129.672 8.99565C129.217 9.44614 128.664 9.67138 128.012 9.67138ZM126.114 26.124V11.4342H129.939V26.124H126.114Z" fill="#26272D"/>
<path d="M140.289 11.0229C142.285 11.0229 143.985 11.7769 145.389 13.2851C146.812 14.7737 147.523 16.605 147.523 18.7791C147.523 20.9532 146.812 22.7943 145.389 24.3025C143.985 25.7911 142.285 26.5354 140.289 26.5354C138.213 26.5354 136.612 25.8205 135.485 24.3906V32H131.661V11.4342H135.485V13.1676C136.612 11.7378 138.213 11.0229 140.289 11.0229ZM136.642 21.7758C137.413 22.5397 138.391 22.9217 139.577 22.9217C140.763 22.9217 141.742 22.5397 142.512 21.7758C143.303 20.9924 143.698 19.9935 143.698 18.7791C143.698 17.5647 143.303 16.5756 142.512 15.8118C141.742 15.0283 140.763 14.6366 139.577 14.6366C138.391 14.6366 137.413 15.0283 136.642 15.8118C135.871 16.5756 135.485 17.5647 135.485 18.7791C135.485 19.9935 135.871 20.9924 136.642 21.7758Z" fill="#26272D"/>
<path d="M151.674 20.3362C152.188 22.1774 153.581 23.0979 155.854 23.0979C157.317 23.0979 158.424 22.6083 159.175 21.6289L162.259 23.3917C160.796 25.4875 158.641 26.5354 155.795 26.5354C153.344 26.5354 151.377 25.8009 149.895 24.3319C148.412 22.8629 147.671 21.012 147.671 18.7791C147.671 16.5658 148.402 14.7247 149.865 13.2557C151.328 11.7671 153.206 11.0229 155.499 11.0229C157.673 11.0229 159.462 11.7671 160.865 13.2557C162.288 14.7443 163 16.5854 163 18.7791C163 19.2688 162.951 19.7878 162.852 20.3362H151.674ZM151.614 17.3983H159.175C158.958 16.3993 158.503 15.6551 157.811 15.1654C157.139 14.6757 156.368 14.4309 155.499 14.4309C154.471 14.4309 153.621 14.6953 152.949 15.2242C152.277 15.7334 151.832 16.4581 151.614 17.3983Z" fill="#26272D"/>
<path fill-rule="evenodd" clip-rule="evenodd" d="M18.0981 33.3351C26.4275 33.3351 33.1799 26.5828 33.1799 18.2534C33.1799 9.92396 26.4275 3.17162 18.0981 3.17162C9.76868 3.17162 3.01635 9.92396 3.01635 18.2534C3.01635 26.5828 9.76868 33.3351 18.0981 33.3351ZM18.0981 36.3515C28.0934 36.3515 36.1962 28.2487 36.1962 18.2534C36.1962 8.25807 28.0934 0.155273 18.0981 0.155273C8.1028 0.155273 0 8.25807 0 18.2534C0 28.2487 8.1028 36.3515 18.0981 36.3515Z" fill="#ED200E"/>
<path fill-rule="evenodd" clip-rule="evenodd" d="M8.08639 18.6384C8.08639 17.7878 8.76367 17.0982 9.59915 17.0982H27.7523C28.5877 17.0982 29.265 17.7878 29.265 18.6384C29.265 19.4891 28.5877 20.1787 27.7523 20.1787H9.59915C8.76367 20.1787 8.08639 19.4891 8.08639 18.6384Z" fill="#ED200E"/>
<path fill-rule="evenodd" clip-rule="evenodd" d="M22.3455 15.1283C23.1706 15.3269 24.0065 14.8432 24.2128 14.0476C24.4191 13.2519 23.9174 12.4456 23.0922 12.2466L22.7186 13.6874C23.0922 12.2466 23.0922 12.2466 23.0922 12.2466L23.0872 12.2454L23.0792 12.2436L23.0544 12.2377C23.0339 12.233 23.0056 12.2266 22.9699 12.2187C22.8985 12.2029 22.7974 12.1812 22.6697 12.1557C22.4144 12.1048 22.0514 12.0382 21.6052 11.972C20.716 11.8401 19.48 11.7073 18.0981 11.7073C16.7162 11.7073 15.4801 11.8401 14.591 11.972C14.1448 12.0382 13.7818 12.1048 13.5265 12.1557C13.3987 12.1812 13.2976 12.2029 13.2263 12.2187C13.1906 12.2266 13.1623 12.233 13.1418 12.2377L13.1169 12.2436L13.1089 12.2454L13.1049 12.2464C13.1049 12.2464 13.104 12.2466 13.4775 13.6874L13.1049 12.2464C12.2797 12.4453 11.777 13.2519 11.9833 14.0476C12.1896 14.8432 13.0256 15.3269 13.8507 15.1283L13.8607 15.1259C13.8715 15.1234 13.8898 15.1192 13.9153 15.1136C13.9663 15.1023 14.0457 15.0853 14.1506 15.0644C14.3605 15.0225 14.6713 14.9653 15.0594 14.9077C15.8388 14.7921 16.913 14.6775 18.0981 14.6775C19.2832 14.6775 20.3574 14.7921 21.1368 14.9077C21.5248 14.9653 21.8356 15.0225 22.0456 15.0644C22.1505 15.0853 22.2299 15.1023 22.2808 15.1136C22.3063 15.1192 22.3247 15.1234 22.3355 15.1259L22.3455 15.1283Z" fill="#ED200E"/>
<path fill-rule="evenodd" clip-rule="evenodd" d="M14.5371 10.1304L14.5389 10.1304L14.5408 10.1305L14.5436 10.1306C14.5449 10.1307 14.5436 10.1306 14.5436 10.1306C14.5414 10.1306 14.5393 10.1305 14.5371 10.1304ZM14.6049 8.6265C14.6733 7.12266 14.6726 7.12263 14.6726 7.12263L14.6705 7.12253L14.6674 7.1224L14.6597 7.12209L14.6395 7.12138C14.6238 7.12089 14.6037 7.12037 14.5795 7.11996C14.5312 7.11915 14.4663 7.11879 14.3868 7.12003C14.2283 7.1225 14.0097 7.13134 13.7482 7.15603C13.2305 7.2049 12.516 7.31848 11.7545 7.58472C10.993 7.85097 10.3633 8.20738 9.92801 8.49169C9.70806 8.63535 9.53161 8.76462 9.40606 8.86149C9.34314 8.91003 9.29258 8.95077 9.25529 8.98151C9.23664 8.99689 9.22127 9.0098 9.2093 9.01997L9.19389 9.03315L9.18811 9.03814L9.18571 9.04023L9.18463 9.04117C9.18463 9.04117 9.18364 9.04204 10.1307 10.1259L9.18363 9.04204C8.55756 9.5891 8.4935 10.5401 9.04055 11.1662C9.58592 11.7903 10.5328 11.8559 11.1589 11.3143L11.1706 11.3046C11.1844 11.2932 11.2096 11.2728 11.2452 11.2453C11.3168 11.19 11.4289 11.1075 11.5744 11.0125C11.87 10.8194 12.2789 10.5909 12.7482 10.4268C13.2174 10.2627 13.6797 10.1867 14.0311 10.1535C14.2042 10.1372 14.3432 10.1319 14.4337 10.1305C14.4787 10.1298 14.5111 10.13 14.529 10.1303L14.5436 10.1306C15.3708 10.1641 16.0711 9.52287 16.1087 8.69488C16.1465 7.86433 15.5032 7.16039 14.6726 7.12263L14.6049 8.6265Z" fill="#ED200E"/>
<path fill-rule="evenodd" clip-rule="evenodd" d="M23.9737 26.1018L23.972 26.1022L23.9701 26.1028L23.9675 26.1036C23.9662 26.1039 23.9675 26.1036 23.9675 26.1036C23.9695 26.103 23.9716 26.1023 23.9737 26.1018ZM24.3944 27.5472C24.8145 28.9928 24.8151 28.9926 24.8151 28.9926L24.8171 28.992L24.8202 28.9911L24.8275 28.9889L24.8469 28.9831C24.8619 28.9785 24.8811 28.9725 24.9041 28.9651C24.9501 28.9503 25.0117 28.9297 25.0865 28.9029C25.2358 28.8494 25.4398 28.7706 25.6795 28.6629C26.1537 28.4498 26.7935 28.1119 27.4285 27.6143C28.0635 27.1168 28.5446 26.5764 28.865 26.1669C29.0269 25.96 29.1522 25.7808 29.2399 25.6486C29.2838 25.5824 29.3185 25.5275 29.3439 25.4864C29.3566 25.4658 29.367 25.4486 29.375 25.4352L29.3854 25.4177L29.3892 25.4111L29.3908 25.4084L29.3915 25.4071C29.3915 25.4071 29.3922 25.406 28.1463 24.6854L29.3922 25.406C29.8085 24.6863 29.5625 23.7654 28.8428 23.3491C28.1253 22.9342 27.2079 23.1773 26.7898 23.8919L26.7819 23.9049C26.7725 23.9201 26.7553 23.9475 26.7304 23.9851C26.6804 24.0605 26.6009 24.1747 26.4938 24.3116C26.2763 24.5896 25.9629 24.9378 25.5715 25.2444C25.1802 25.551 24.7672 25.772 24.4452 25.9167C24.2867 25.988 24.1568 26.0378 24.0716 26.0683C24.0292 26.0835 23.9984 26.0937 23.9814 26.0992L23.9675 26.1036C23.1737 26.3386 22.7175 27.1714 22.9488 27.9673C23.1808 28.7657 24.0167 29.2246 24.8151 28.9926L24.3944 27.5472Z" fill="#ED200E"/>
<path fill-rule="evenodd" clip-rule="evenodd" d="M13.8507 21.7636C13.0256 21.5649 12.1897 22.0487 11.9834 22.8442C11.7771 23.64 12.2788 24.4463 13.104 24.6452L13.4776 23.2044C13.104 24.6452 13.104 24.6452 13.104 24.6452L13.109 24.6464L13.117 24.6483L13.1418 24.6541C13.1623 24.6588 13.1906 24.6653 13.2263 24.6732C13.2977 24.689 13.3988 24.7106 13.5265 24.7361C13.7818 24.787 14.1449 24.8536 14.5911 24.9198C15.4802 25.0517 16.7163 25.1846 18.0981 25.1846C19.48 25.1846 20.7161 25.0517 21.6052 24.9198C22.0514 24.8536 22.4144 24.787 22.6697 24.7361C22.7975 24.7106 22.8986 24.689 22.97 24.6732C23.0056 24.6653 23.0339 24.6588 23.0544 24.6541L23.0793 24.6483L23.0873 24.6464L23.0913 24.6454C23.0913 24.6454 23.0922 24.6452 22.7187 23.2044L23.0913 24.6454C23.9165 24.4465 24.4192 23.64 24.2129 22.8442C24.0066 22.0487 23.1706 21.5649 22.3455 21.7636L22.3356 21.7659C22.3247 21.7684 22.3064 21.7726 22.2809 21.7782C22.2299 21.7895 22.1505 21.8066 22.0457 21.8275C21.8357 21.8694 21.5249 21.9265 21.1368 21.9841C20.3574 22.0997 19.2832 22.2144 18.0981 22.2144C16.913 22.2144 15.8389 22.0997 15.0594 21.9841C14.6714 21.9265 14.3606 21.8694 14.1506 21.8275C14.0457 21.8066 13.9663 21.7895 13.9154 21.7782C13.8899 21.7726 13.8716 21.7684 13.8607 21.7659L13.8507 21.7636Z" fill="#ED200E"/>
</svg>
