<svg width="825" height="162" viewBox="0 0 825 162" fill="none" xmlns="http://www.w3.org/2000/svg">
<path d="M312.726 38.3925H336.67L308.881 126.047H287.385L271.306 72.9283L255.227 126.047H233.731L205.942 38.3925H229.886L244.741 92.2122L260.645 38.3925H281.967L297.871 92.3875L312.726 38.3925Z" fill="#26272D"/>
<path d="M353.972 91.5109C357.001 102.497 365.215 107.99 378.614 107.99C387.236 107.99 393.761 105.068 398.189 99.2245L416.365 109.743C407.743 122.248 395.043 128.501 378.265 128.501C363.817 128.501 352.224 124.118 343.486 115.353C334.747 106.587 330.378 95.543 330.378 82.2196C330.378 69.013 334.689 58.027 343.311 49.2616C351.933 40.3793 363.002 35.9382 376.517 35.9382C389.334 35.9382 399.878 40.3793 408.15 49.2616C416.539 58.1439 420.734 69.1299 420.734 82.2196C420.734 85.1414 420.443 88.2385 419.86 91.5109H353.972ZM353.622 73.9801H398.189C396.907 68.0196 394.227 63.5785 390.149 60.6567C386.188 57.7349 381.644 56.274 376.517 56.274C370.458 56.274 365.448 57.8517 361.487 61.0073C357.526 64.046 354.904 68.3702 353.622 73.9801Z" fill="#26272D"/>
<path d="M476.844 35.9382C488.612 35.9382 498.632 40.4378 506.905 49.4369C515.294 58.3192 519.488 69.2468 519.488 82.2196C519.488 95.1924 515.294 106.178 506.905 115.178C498.632 124.06 488.612 128.501 476.844 128.501C464.61 128.501 455.173 124.235 448.532 115.703V126.047H425.986V3.33086H448.532V48.7357C455.173 40.204 464.61 35.9382 476.844 35.9382ZM455.348 100.101C459.892 104.659 465.659 106.938 472.65 106.938C479.641 106.938 485.408 104.659 489.952 100.101C494.612 95.4261 496.943 89.4657 496.943 82.2196C496.943 74.9735 494.612 69.0715 489.952 64.5135C485.408 59.8386 479.641 57.5011 472.65 57.5011C465.659 57.5011 459.892 59.8386 455.348 64.5135C450.804 69.0715 448.532 74.9735 448.532 82.2196C448.532 89.4657 450.804 95.4261 455.348 100.101Z" fill="#26272D"/>
<path d="M566.497 128.501C553.331 128.501 542.32 124.06 533.465 115.178C524.727 106.295 520.358 95.3093 520.358 82.2196C520.358 69.1299 524.727 58.1439 533.465 49.2616C542.32 40.3793 553.331 35.9382 566.497 35.9382C575.002 35.9382 582.75 37.9835 589.741 42.074C596.732 46.1645 602.033 51.6575 605.645 58.553L586.246 69.948C584.498 66.325 581.818 63.4616 578.206 61.3579C574.711 59.2542 570.75 58.2023 566.322 58.2023C559.564 58.2023 553.972 60.4814 549.544 65.0394C545.117 69.4805 542.903 75.2073 542.903 82.2196C542.903 89.115 545.117 94.8418 549.544 99.3998C553.972 103.841 559.564 106.062 566.322 106.062C570.866 106.062 574.886 105.068 578.381 103.081C581.993 100.978 584.673 98.1142 586.421 94.4912L605.995 105.711C602.15 112.606 596.732 118.158 589.741 122.365C582.75 126.456 575.002 128.501 566.497 128.501Z" fill="#26272D"/>
<path d="M618.618 27.874C614.889 27.874 611.627 26.53 608.831 23.8419C606.151 21.037 604.811 17.7646 604.811 14.0247C604.811 10.2848 606.151 7.01233 608.831 4.2074C611.627 1.40246 614.889 0 618.618 0C622.463 0 625.725 1.40246 628.405 4.2074C631.201 7.01233 632.599 10.2848 632.599 14.0247C632.599 17.7646 631.201 21.037 628.405 23.8419C625.725 26.53 622.463 27.874 618.618 27.874ZM607.432 126.047V38.3925H629.978V126.047H607.432Z" fill="#26272D"/>
<path d="M690.984 35.9382C702.752 35.9382 712.772 40.4378 721.045 49.4369C729.434 58.3192 733.628 69.2468 733.628 82.2196C733.628 95.1924 729.434 106.178 721.045 115.178C712.772 124.06 702.752 128.501 690.984 128.501C678.751 128.501 669.313 124.235 662.672 115.703V161.108H640.127V38.3925H662.672V48.7357C669.313 40.204 678.751 35.9382 690.984 35.9382ZM669.488 100.101C674.032 104.659 679.799 106.938 686.79 106.938C693.781 106.938 699.548 104.659 704.092 100.101C708.753 95.4261 711.083 89.4657 711.083 82.2196C711.083 74.9735 708.753 69.0715 704.092 64.5135C699.548 59.8386 693.781 57.5011 686.79 57.5011C679.799 57.5011 674.032 59.8386 669.488 64.5135C664.944 69.0715 662.672 74.9735 662.672 82.2196C662.672 89.4657 664.944 95.4261 669.488 100.101Z" fill="#26272D"/>
<path d="M758.092 91.5109C761.121 102.497 769.335 107.99 782.734 107.99C791.356 107.99 797.881 105.068 802.308 99.2245L820.484 109.743C811.862 122.248 799.162 128.501 782.385 128.501C767.937 128.501 756.344 124.118 747.606 115.353C738.867 106.587 734.498 95.543 734.498 82.2196C734.498 69.013 738.809 58.027 747.431 49.2616C756.053 40.3793 767.121 35.9382 780.637 35.9382C793.453 35.9382 803.998 40.3793 812.27 49.2616C820.659 58.1439 824.854 69.1299 824.854 82.2196C824.854 85.1414 824.562 88.2385 823.98 91.5109H758.092ZM757.742 73.9801H802.308C801.027 68.0196 798.347 63.5785 794.269 60.6567C790.307 57.7349 785.763 56.274 780.637 56.274C774.578 56.274 769.568 57.8517 765.607 61.0073C761.645 64.046 759.024 68.3702 757.742 73.9801Z" fill="#26272D"/>
<path fill-rule="evenodd" clip-rule="evenodd" d="M74.9712 142.233C109.476 142.233 137.447 114.261 137.447 79.7566C137.447 45.2521 109.476 17.2806 74.9712 17.2806C40.4667 17.2806 12.4952 45.2521 12.4952 79.7566C12.4952 114.261 40.4667 142.233 74.9712 142.233ZM74.9712 154.728C116.377 154.728 149.942 121.162 149.942 79.7566C149.942 38.3511 116.377 4.7854 74.9712 4.7854C33.5657 4.7854 0 38.3511 0 79.7566C0 121.162 33.5657 154.728 74.9712 154.728Z" fill="#25A122"/>
<path fill-rule="evenodd" clip-rule="evenodd" d="M33.4978 81.3517C33.4978 77.8279 36.3034 74.9712 39.7644 74.9712H114.963C118.424 74.9712 121.23 77.8279 121.23 81.3517C121.23 84.8756 118.424 87.7323 114.963 87.7323H39.7644C36.3034 87.7323 33.4978 84.8756 33.4978 81.3517Z" fill="#25A122"/>
<path fill-rule="evenodd" clip-rule="evenodd" d="M92.5661 66.8109C95.9839 67.6337 99.4468 65.6298 100.301 62.3341C101.156 59.0379 99.0775 55.6978 95.659 54.8737L94.1116 60.8421C95.659 54.8737 95.659 54.8737 95.659 54.8737L95.6385 54.8688L95.6055 54.861L95.5024 54.8369C95.4175 54.8172 95.3004 54.7905 95.1525 54.7578C94.8569 54.6924 94.4382 54.6028 93.9089 54.4972C92.8513 54.2862 91.3475 54.0104 89.4991 53.7362C85.8159 53.1899 80.6955 52.6394 74.9711 52.6394C69.2467 52.6394 64.1262 53.1899 60.443 53.7362C58.5947 54.0104 57.0908 54.2862 56.0332 54.4972C55.504 54.6028 55.0853 54.6924 54.7896 54.7578C54.6418 54.7905 54.5246 54.8172 54.4397 54.8369L54.3367 54.861L54.3036 54.8688L54.2871 54.8728C54.2871 54.8728 54.2831 54.8737 55.8305 60.8421L54.2871 54.8728C50.8686 55.6968 48.7862 59.0379 49.6408 62.3341C50.4953 65.6298 53.9583 67.6338 57.3763 66.8108L57.4176 66.8012C57.4625 66.7908 57.5385 66.7734 57.644 66.7501C57.8552 66.7034 58.1841 66.6327 58.6185 66.5461C59.4883 66.3726 60.7758 66.1357 62.3833 65.8972C65.612 65.4183 70.0619 64.9434 74.9711 64.9434C79.8803 64.9434 84.3301 65.4183 87.5588 65.8972C89.1664 66.1357 90.4539 66.3726 91.3236 66.5461C91.758 66.6327 92.087 66.7034 92.2981 66.7501C92.4036 66.7734 92.4796 66.7908 92.5245 66.8012L92.5661 66.8109Z" fill="#25A122"/>
<path fill-rule="evenodd" clip-rule="evenodd" d="M60.22 46.1071L60.2271 46.1074L60.2352 46.1078L60.2466 46.1082C60.2521 46.1085 60.2466 46.1082 60.2466 46.1082C60.2378 46.1079 60.2288 46.1075 60.22 46.1071ZM60.5006 39.8774C60.7839 33.6477 60.7812 33.6476 60.7812 33.6476L60.7725 33.6472L60.7593 33.6466L60.7277 33.6454L60.6438 33.6424C60.5787 33.6404 60.4956 33.6382 60.3955 33.6365C60.1953 33.6332 59.9263 33.6317 59.5972 33.6368C58.9404 33.647 58.035 33.6837 56.9516 33.786C54.8073 33.9884 51.8472 34.4589 48.6927 35.5618C45.5383 36.6647 42.9299 38.1412 41.1267 39.3189C40.2155 39.914 39.4846 40.4495 38.9645 40.8508C38.7038 41.0519 38.4944 41.2206 38.3399 41.348C38.2627 41.4117 38.199 41.4652 38.1494 41.5073L38.0856 41.5619L38.0616 41.5826L38.0517 41.5912L38.0472 41.5951C38.0472 41.5951 38.0431 41.5987 41.9662 46.0885L38.0431 41.5987C35.4496 43.8649 35.1842 47.8045 37.4504 50.398C39.7096 52.9835 43.6319 53.2552 46.2256 51.0115L46.274 50.9712C46.3312 50.924 46.4355 50.8395 46.5832 50.7255C46.8799 50.4966 47.3441 50.1548 47.9468 49.7612C49.1713 48.9615 50.8652 48.0148 52.8091 47.3351C54.7531 46.6554 56.6678 46.3404 58.1238 46.2029C58.8405 46.1353 59.4166 46.1133 59.7912 46.1075C59.9778 46.1046 60.1121 46.1057 60.1862 46.107L60.2466 46.1082C63.6733 46.2469 66.5743 43.5906 66.7303 40.1606C66.8867 36.7201 64.2218 33.804 60.7812 33.6476L60.5006 39.8774Z" fill="#25A122"/>
<path fill-rule="evenodd" clip-rule="evenodd" d="M99.3106 112.268L99.3038 112.27L99.296 112.273L99.2851 112.276C99.2798 112.277 99.2851 112.276 99.2851 112.276C99.2935 112.273 99.3021 112.271 99.3106 112.268ZM101.053 118.256C102.794 124.244 102.796 124.244 102.796 124.244L102.805 124.241L102.817 124.237L102.848 124.228L102.928 124.204C102.99 124.185 103.07 124.16 103.165 124.13C103.356 124.068 103.611 123.983 103.921 123.872C104.539 123.651 105.384 123.324 106.377 122.878C108.341 121.995 110.992 120.595 113.622 118.534C116.253 116.473 118.246 114.235 119.573 112.538C120.244 111.681 120.763 110.939 121.126 110.391C121.308 110.117 121.452 109.89 121.557 109.719C121.609 109.634 121.652 109.563 121.686 109.507L121.729 109.435L121.744 109.407L121.751 109.396L121.754 109.391C121.754 109.391 121.757 109.386 116.596 106.401L121.757 109.386C123.481 106.405 122.462 102.59 119.481 100.866C116.509 99.1466 112.708 100.154 110.977 103.114L110.944 103.168C110.905 103.231 110.833 103.345 110.73 103.5C110.523 103.812 110.194 104.286 109.75 104.853C108.849 106.004 107.551 107.447 105.93 108.717C104.309 109.987 102.598 110.902 101.264 111.502C100.607 111.797 100.069 112.004 99.7163 112.13C99.5407 112.193 99.4132 112.235 99.3426 112.258L99.2851 112.276C95.9966 113.249 94.1069 116.699 95.0651 119.996C96.0262 123.304 99.489 125.205 102.796 124.244L101.053 118.256Z" fill="#25A122"/>
<path fill-rule="evenodd" clip-rule="evenodd" d="M57.3763 94.2975C53.9584 93.4746 50.4956 95.4786 49.6411 98.7742C48.7865 102.07 50.8649 105.411 54.2834 106.235L55.8308 100.266C54.2834 106.235 54.2834 106.235 54.2834 106.235L54.3039 106.24L54.3369 106.247L54.4399 106.271C54.5249 106.291 54.642 106.318 54.7899 106.351C55.0855 106.416 55.5042 106.506 56.0335 106.611C57.0911 106.822 58.5949 107.098 60.4433 107.372C64.1264 107.918 69.2469 108.469 74.9713 108.469C80.6957 108.469 85.8162 107.918 89.4994 107.372C91.3477 107.098 92.8516 106.822 93.9092 106.611C94.4384 106.506 94.8571 106.416 95.1528 106.351C95.3006 106.318 95.4178 106.291 95.5027 106.271L95.6057 106.247L95.6388 106.24L95.6553 106.236C95.6553 106.236 95.6593 106.235 94.1119 100.266L95.6553 106.236C99.0738 105.412 101.156 102.07 100.302 98.7742C99.4471 95.4785 95.984 93.4745 92.5661 94.2975L92.5248 94.3071C92.4799 94.3175 92.4039 94.3349 92.2984 94.3583C92.0872 94.405 91.7583 94.4756 91.3239 94.5622C90.4541 94.7358 89.1666 94.9726 87.5591 95.2111C84.3304 95.6901 79.8805 96.1649 74.9713 96.1649C70.0621 96.1649 65.6123 95.6901 62.3836 95.2111C60.776 94.9726 59.4885 94.7358 58.6188 94.5622C58.1844 94.4756 57.8554 94.405 57.6443 94.3583C57.5387 94.3349 57.4628 94.3175 57.4179 94.3071L57.3763 94.2975Z" fill="#25A122"/>
</svg>
