<svg width="150" height="151" viewBox="0 0 150 151" fill="none" xmlns="http://www.w3.org/2000/svg">
<path fill-rule="evenodd" clip-rule="evenodd" d="M74.9712 138.233C109.476 138.233 137.447 110.261 137.447 75.7566C137.447 41.2521 109.476 13.2806 74.9712 13.2806C40.4667 13.2806 12.4952 41.2521 12.4952 75.7566C12.4952 110.261 40.4667 138.233 74.9712 138.233ZM74.9712 150.728C116.377 150.728 149.942 117.162 149.942 75.7566C149.942 34.3511 116.377 0.7854 74.9712 0.7854C33.5657 0.7854 0 34.3511 0 75.7566C0 117.162 33.5657 150.728 74.9712 150.728Z" fill="#25A122"/>
<path fill-rule="evenodd" clip-rule="evenodd" d="M33.4978 77.3517C33.4978 73.8279 36.3034 70.9712 39.7644 70.9712H114.963C118.424 70.9712 121.23 73.8279 121.23 77.3517C121.23 80.8756 118.424 83.7323 114.963 83.7323H39.7644C36.3034 83.7323 33.4978 80.8756 33.4978 77.3517Z" fill="#25A122"/>
<path fill-rule="evenodd" clip-rule="evenodd" d="M92.5661 62.8109C95.9839 63.6337 99.4468 61.6298 100.301 58.3341C101.156 55.0379 99.0775 51.6978 95.659 50.8737L94.1116 56.8421C95.659 50.8737 95.659 50.8737 95.659 50.8737L95.6385 50.8688L95.6055 50.861L95.5024 50.8369C95.4175 50.8172 95.3004 50.7905 95.1525 50.7578C94.8569 50.6924 94.4382 50.6028 93.9089 50.4972C92.8513 50.2862 91.3475 50.0104 89.4991 49.7362C85.8159 49.1899 80.6955 48.6394 74.9711 48.6394C69.2467 48.6394 64.1262 49.1899 60.443 49.7362C58.5947 50.0104 57.0908 50.2862 56.0332 50.4972C55.504 50.6028 55.0853 50.6924 54.7896 50.7578C54.6418 50.7905 54.5246 50.8172 54.4397 50.8369L54.3367 50.861L54.3036 50.8688L54.2871 50.8728C54.2871 50.8728 54.2831 50.8737 55.8305 56.8421L54.2871 50.8728C50.8686 51.6968 48.7862 55.0379 49.6408 58.3341C50.4953 61.6298 53.9583 63.6338 57.3763 62.8108L57.4176 62.8012C57.4625 62.7908 57.5385 62.7734 57.644 62.7501C57.8552 62.7034 58.1841 62.6327 58.6185 62.5461C59.4883 62.3726 60.7758 62.1357 62.3833 61.8972C65.612 61.4183 70.0619 60.9434 74.9711 60.9434C79.8803 60.9434 84.3301 61.4183 87.5588 61.8972C89.1664 62.1357 90.4539 62.3726 91.3236 62.5461C91.758 62.6327 92.087 62.7034 92.2981 62.7501C92.4036 62.7734 92.4796 62.7908 92.5245 62.8012L92.5661 62.8109Z" fill="#25A122"/>
<path fill-rule="evenodd" clip-rule="evenodd" d="M60.22 42.1071L60.2271 42.1074L60.2352 42.1078L60.2466 42.1082C60.2521 42.1085 60.2466 42.1082 60.2466 42.1082C60.2378 42.1079 60.2288 42.1075 60.22 42.1071ZM60.5006 35.8774C60.7839 29.6477 60.7812 29.6476 60.7812 29.6476L60.7725 29.6472L60.7593 29.6466L60.7277 29.6454L60.6438 29.6424C60.5787 29.6404 60.4956 29.6382 60.3955 29.6365C60.1953 29.6332 59.9263 29.6317 59.5972 29.6368C58.9404 29.647 58.035 29.6837 56.9516 29.786C54.8073 29.9884 51.8472 30.4589 48.6927 31.5618C45.5383 32.6647 42.9299 34.1412 41.1267 35.3189C40.2155 35.914 39.4846 36.4495 38.9645 36.8508C38.7038 37.0519 38.4944 37.2206 38.3399 37.348C38.2627 37.4117 38.199 37.4652 38.1494 37.5073L38.0856 37.5619L38.0616 37.5826L38.0517 37.5912L38.0472 37.5951C38.0472 37.5951 38.0431 37.5987 41.9662 42.0885L38.0431 37.5987C35.4496 39.8649 35.1842 43.8045 37.4504 46.398C39.7096 48.9835 43.6319 49.2552 46.2256 47.0115L46.274 46.9712C46.3312 46.924 46.4355 46.8395 46.5832 46.7255C46.8799 46.4966 47.3441 46.1548 47.9468 45.7612C49.1713 44.9615 50.8652 44.0148 52.8091 43.3351C54.7531 42.6554 56.6678 42.3404 58.1238 42.2029C58.8405 42.1353 59.4166 42.1133 59.7912 42.1075C59.9778 42.1046 60.1121 42.1057 60.1862 42.107L60.2466 42.1082C63.6733 42.2469 66.5743 39.5906 66.7303 36.1606C66.8867 32.7201 64.2218 29.804 60.7812 29.6476L60.5006 35.8774Z" fill="#25A122"/>
<path fill-rule="evenodd" clip-rule="evenodd" d="M99.3106 108.268L99.3038 108.27L99.296 108.273L99.2851 108.276C99.2798 108.277 99.2851 108.276 99.2851 108.276C99.2935 108.273 99.3021 108.271 99.3106 108.268ZM101.053 114.256C102.794 120.244 102.796 120.244 102.796 120.244L102.805 120.241L102.817 120.237L102.848 120.228L102.928 120.204C102.99 120.185 103.07 120.16 103.165 120.13C103.356 120.068 103.611 119.983 103.921 119.872C104.539 119.651 105.384 119.324 106.377 118.878C108.341 117.995 110.992 116.595 113.622 114.534C116.253 112.473 118.246 110.235 119.573 108.538C120.244 107.681 120.763 106.939 121.126 106.391C121.308 106.117 121.452 105.89 121.557 105.719C121.609 105.634 121.652 105.563 121.686 105.507L121.729 105.435L121.744 105.407L121.751 105.396L121.754 105.391C121.754 105.391 121.757 105.386 116.596 102.401L121.757 105.386C123.481 102.405 122.462 98.5901 119.481 96.8657C116.509 95.1466 112.708 96.154 110.977 99.1141L110.944 99.1678C110.905 99.2309 110.833 99.3446 110.73 99.5001C110.523 99.8124 110.194 100.286 109.75 100.853C108.849 102.004 107.551 103.447 105.93 104.717C104.309 105.987 102.598 106.902 101.264 107.502C100.607 107.797 100.069 108.004 99.7163 108.13C99.5407 108.193 99.4132 108.235 99.3426 108.258L99.2851 108.276C95.9966 109.249 94.1069 112.699 95.0651 115.996C96.0262 119.304 99.489 121.205 102.796 120.244L101.053 114.256Z" fill="#25A122"/>
<path fill-rule="evenodd" clip-rule="evenodd" d="M57.3763 90.2975C53.9584 89.4746 50.4956 91.4786 49.6411 94.7742C48.7865 98.0704 50.8649 101.411 54.2834 102.235L55.8308 96.2663C54.2834 102.235 54.2834 102.235 54.2834 102.235L54.3039 102.24L54.3369 102.247L54.4399 102.271C54.5249 102.291 54.642 102.318 54.7899 102.351C55.0855 102.416 55.5042 102.506 56.0335 102.611C57.0911 102.822 58.5949 103.098 60.4433 103.372C64.1264 103.918 69.2469 104.469 74.9713 104.469C80.6957 104.469 85.8162 103.918 89.4994 103.372C91.3477 103.098 92.8516 102.822 93.9092 102.611C94.4384 102.506 94.8571 102.416 95.1528 102.351C95.3006 102.318 95.4178 102.291 95.5027 102.271L95.6057 102.247L95.6388 102.24L95.6553 102.236C95.6553 102.236 95.6593 102.235 94.1119 96.2663L95.6553 102.236C99.0738 101.412 101.156 98.0704 100.302 94.7742C99.4471 91.4785 95.984 89.4745 92.5661 90.2975L92.5248 90.3071C92.4799 90.3175 92.4039 90.3349 92.2984 90.3583C92.0872 90.405 91.7583 90.4756 91.3239 90.5622C90.4541 90.7358 89.1666 90.9726 87.5591 91.2111C84.3304 91.6901 79.8805 92.1649 74.9713 92.1649C70.0621 92.1649 65.6123 91.6901 62.3836 91.2111C60.776 90.9726 59.4885 90.7358 58.6188 90.5622C58.1844 90.4756 57.8554 90.405 57.6443 90.3583C57.5387 90.3349 57.4628 90.3175 57.4179 90.3071L57.3763 90.2975Z" fill="#25A122"/>
</svg>
