<svg width="16" height="18" viewBox="0 0 16 18" fill="none" xmlns="http://www.w3.org/2000/svg">
<path fill-rule="evenodd" clip-rule="evenodd" d="M0 4.09091C0 3.63904 0.358172 3.27273 0.8 3.27273H15.2C15.6418 3.27273 16 3.63904 16 4.09091C16 4.54278 15.6418 4.90909 15.2 4.90909H0.8C0.358172 4.90909 0 4.54278 0 4.09091Z" fill="black"/>
<path fill-rule="evenodd" clip-rule="evenodd" d="M6.4 1.63636C6.18783 1.63636 5.98434 1.72256 5.83431 1.876C5.68429 2.02944 5.6 2.23755 5.6 2.45455V3.27273H10.4V2.45455C10.4 2.23755 10.3157 2.02944 10.1657 1.876C10.0157 1.72256 9.81217 1.63636 9.6 1.63636H6.4ZM12 3.27273V2.45455C12 1.80356 11.7471 1.17924 11.2971 0.71892C10.847 0.258603 10.2365 0 9.6 0H6.4C5.76348 0 5.15303 0.258603 4.70294 0.71892C4.25286 1.17924 4 1.80356 4 2.45455V3.27273H2.4C1.95817 3.27273 1.6 3.63904 1.6 4.09091V15.5455C1.6 16.1964 1.85286 16.8208 2.30294 17.2811C2.75303 17.7414 3.36348 18 4 18H12C12.6365 18 13.247 17.7414 13.6971 17.2811C14.1471 16.8208 14.4 16.1964 14.4 15.5455V4.09091C14.4 3.63904 14.0418 3.27273 13.6 3.27273H12ZM3.2 4.90909V15.5455C3.2 15.7625 3.28429 15.9706 3.43431 16.124C3.58434 16.2774 3.78783 16.3636 4 16.3636H12C12.2122 16.3636 12.4157 16.2774 12.5657 16.124C12.7157 15.9706 12.8 15.7624 12.8 15.5455V4.90909H3.2Z" fill="black"/>
<path fill-rule="evenodd" clip-rule="evenodd" d="M6.4 7.36364C6.84183 7.36364 7.2 7.72995 7.2 8.18182V13.0909C7.2 13.5428 6.84183 13.9091 6.4 13.9091C5.95817 13.9091 5.6 13.5428 5.6 13.0909V8.18182C5.6 7.72995 5.95817 7.36364 6.4 7.36364Z" fill="black"/>
<path fill-rule="evenodd" clip-rule="evenodd" d="M9.6 7.36364C10.0418 7.36364 10.4 7.72995 10.4 8.18182V13.0909C10.4 13.5428 10.0418 13.9091 9.6 13.9091C9.15817 13.9091 8.8 13.5428 8.8 13.0909V8.18182C8.8 7.72995 9.15817 7.36364 9.6 7.36364Z" fill="black"/>
</svg>
