<svg width="21" height="20" viewBox="0 0 21 20" fill="none" xmlns="http://www.w3.org/2000/svg">
<g clip-path="url(#clip0)">
<path d="M1.82822 18.1249C1.82822 18.6222 2.05741 19.0991 2.46539 19.4507C2.87336 19.8023 3.42669 19.9999 4.00365 19.9999H17.0562C17.6332 19.9999 18.1865 19.8023 18.5945 19.4507C19.0025 19.0991 19.2317 18.6222 19.2317 18.1249V4.99988H1.82822V18.1249ZM14.1557 8.12488C14.1557 7.95912 14.2321 7.80015 14.368 7.68294C14.504 7.56573 14.6885 7.49988 14.8808 7.49988C15.0731 7.49988 15.2576 7.56573 15.3936 7.68294C15.5295 7.80015 15.6059 7.95912 15.6059 8.12488V16.8749C15.6059 17.0406 15.5295 17.1996 15.3936 17.3168C15.2576 17.434 15.0731 17.4999 14.8808 17.4999C14.6885 17.4999 14.504 17.434 14.368 17.3168C14.2321 17.1996 14.1557 17.0406 14.1557 16.8749V8.12488ZM9.8048 8.12488C9.8048 7.95912 9.88119 7.80015 10.0172 7.68294C10.1532 7.56573 10.3376 7.49988 10.5299 7.49988C10.7223 7.49988 10.9067 7.56573 11.0427 7.68294C11.1787 7.80015 11.2551 7.95912 11.2551 8.12488V16.8749C11.2551 17.0406 11.1787 17.1996 11.0427 17.3168C10.9067 17.434 10.7223 17.4999 10.5299 17.4999C10.3376 17.4999 10.1532 17.434 10.0172 17.3168C9.88119 17.1996 9.8048 17.0406 9.8048 16.8749V8.12488ZM5.45393 8.12488C5.45393 7.95912 5.53033 7.80015 5.66632 7.68294C5.80232 7.56573 5.98676 7.49988 6.17908 7.49988C6.3714 7.49988 6.55584 7.56573 6.69183 7.68294C6.82782 7.80015 6.90422 7.95912 6.90422 8.12488V16.8749C6.90422 17.0406 6.82782 17.1996 6.69183 17.3168C6.55584 17.434 6.3714 17.4999 6.17908 17.4999C5.98676 17.4999 5.80232 17.434 5.66632 17.3168C5.53033 17.1996 5.45393 17.0406 5.45393 16.8749V8.12488ZM19.9568 1.24988H14.5182L14.0922 0.519416C14.002 0.36325 13.8629 0.231886 13.6908 0.140103C13.5187 0.04832 13.3202 -0.00024035 13.1178 -0.000115222H7.93755C7.73559 -0.000784383 7.53749 0.0475949 7.36596 0.13948C7.19442 0.231365 7.05639 0.363039 6.96767 0.519416L6.54165 1.24988H1.10307C0.910753 1.24988 0.72631 1.31573 0.590319 1.43294C0.454329 1.55015 0.37793 1.70912 0.37793 1.87488L0.37793 3.12488C0.37793 3.29064 0.454329 3.44962 0.590319 3.56683C0.72631 3.68404 0.910753 3.74988 1.10307 3.74988H19.9568C20.1491 3.74988 20.3336 3.68404 20.4696 3.56683C20.6056 3.44962 20.6819 3.29064 20.6819 3.12488V1.87488C20.6819 1.70912 20.6056 1.55015 20.4696 1.43294C20.3336 1.31573 20.1491 1.24988 19.9568 1.24988V1.24988Z" fill="#474747"/>
</g>
<defs>
<clipPath id="clip0">
<rect x="0.37793" width="20.304" height="20" fill="white"/>
</clipPath>
</defs>
</svg>
